<?xml version="1.0" encoding="UTF-8" standalone="no"?>
<!-- Created with Inkscape (http://www.inkscape.org/) -->

<svg
   width="183.67081mm"
   height="113.73918mm"
   viewBox="0 0 183.6708 113.73918"
   version="1.1"
   id="svg1"
   inkscape:version="1.3 (0e150ed6c4, 2023-07-21)"
   sodipodi:docname="animation_3d_02.svg"
   xmlns:inkscape="http://www.inkscape.org/namespaces/inkscape"
   xmlns:sodipodi="http://sodipodi.sourceforge.net/DTD/sodipodi-0.dtd"
   xmlns="http://www.w3.org/2000/svg"
   xmlns:svg="http://www.w3.org/2000/svg">
  <sodipodi:namedview
     id="namedview1"
     pagecolor="#ffffff"
     bordercolor="#999999"
     borderopacity="1"
     inkscape:showpageshadow="2"
     inkscape:pageopacity="0"
     inkscape:pagecheckerboard="0"
     inkscape:deskcolor="#d1d1d1"
     inkscape:document-units="mm"
     showgrid="false"
     inkscape:zoom="1.1616723"
     inkscape:cx="349.92657"
     inkscape:cy="204.01623"
     inkscape:window-width="1440"
     inkscape:window-height="890"
     inkscape:window-x="-6"
     inkscape:window-y="-6"
     inkscape:window-maximized="1"
     inkscape:current-layer="layer1" />
  <defs
     id="defs1">
    <rect
       x="425.24902"
       y="359.82608"
       width="96.412735"
       height="71.448723"
       id="rect59" />
    <rect
       x="395.12003"
       y="94.691078"
       width="389.95508"
       height="81.778656"
       id="rect60" />
    <rect
       x="49.067196"
       y="224.6761"
       width="501.00189"
       height="123.0984"
       id="rect12" />
  </defs>
  <g
     inkscape:label="Ebene 1"
     inkscape:groupmode="layer"
     id="layer1"
     transform="translate(-20.110309,-67.751404)">
    <text
       xml:space="preserve"
       style="font-size:3.88056px;line-height:1.9;font-family:Arial;-inkscape-font-specification:Arial;text-align:start;text-anchor:start;fill:#000000;fill-opacity:1;stroke:none;stroke-width:0.326001;stroke-linejoin:round;stroke-dasharray:none;stroke-opacity:1"
       x="87.717567"
       y="125.49617"
       id="text1"><tspan
         sodipodi:role="line"
         style="font-style:normal;font-variant:normal;font-weight:bold;font-stretch:normal;line-height:1.9;font-family:Arial;-inkscape-font-specification:'Arial Bold';text-align:start;text-anchor:start;fill:#000000;fill-opacity:1;stroke:none;stroke-width:0.326"
         x="87.717567"
         y="125.49617"
         id="tspan5">Digitale Signatur (c)</tspan><tspan
         sodipodi:role="line"
         style="font-style:normal;font-variant:normal;font-weight:bold;font-stretch:normal;line-height:1.9;font-family:Arial;-inkscape-font-specification:'Arial Bold';text-align:start;text-anchor:start;fill:#000000;fill-opacity:1;stroke:none;stroke-width:0.326"
         x="87.717567"
         y="132.86923"
         id="tspan49">... entschlüsselt (m)</tspan><tspan
         sodipodi:role="line"
         style="font-style:normal;font-variant:normal;font-weight:bold;font-stretch:normal;line-height:1.9;font-family:Arial;-inkscape-font-specification:'Arial Bold';text-align:start;text-anchor:start;fill:#000000;fill-opacity:1;stroke:none;stroke-width:0.326"
         x="87.717567"
         y="140.24229"
         id="tspan27">   m = c<tspan
   style="font-size:3.52778px;baseline-shift:super"
   id="tspan31">e</tspan> mod n</tspan><tspan
         sodipodi:role="line"
         style="font-style:normal;font-variant:normal;font-weight:bold;font-stretch:normal;line-height:1.9;font-family:Arial;-inkscape-font-specification:'Arial Bold';text-align:start;text-anchor:start;fill:#000000;fill-opacity:1;stroke:none;stroke-width:0.326"
         x="87.717567"
         y="147.61536"
         id="tspan50">... als binäre Zahl </tspan><tspan
         sodipodi:role="line"
         style="font-style:normal;font-variant:normal;font-weight:bold;font-stretch:normal;line-height:1.9;font-family:Arial;-inkscape-font-specification:'Arial Bold';text-align:start;text-anchor:start;fill:#000000;fill-opacity:1;stroke:none;stroke-width:0.326"
         x="87.717567"
         y="154.98842"
         id="tspan57">... als hexadezimale Zahl</tspan><tspan
         sodipodi:role="line"
         style="font-style:normal;font-variant:normal;font-weight:bold;font-stretch:normal;line-height:1.9;font-family:Arial;-inkscape-font-specification:'Arial Bold';text-align:start;text-anchor:start;fill:#000000;fill-opacity:1;stroke:none;stroke-width:0.326"
         x="87.717567"
         y="162.3615"
         id="tspan51" /></text>
    <text
       xml:space="preserve"
       style="font-size:3.88056px;line-height:0;font-family:Arial;-inkscape-font-specification:Arial;text-align:start;text-anchor:start;fill:#000000;fill-opacity:1;stroke:none;stroke-width:0.326001;stroke-linejoin:round;stroke-dasharray:none;stroke-opacity:1"
       x="128.91257"
       y="125.49617"
       id="text11"><tspan
         sodipodi:role="line"
         style="font-style:normal;font-variant:normal;font-weight:normal;font-stretch:normal;font-size:3.88056px;line-height:1.9;font-family:Arial;-inkscape-font-specification:Arial;stroke-width:0.326"
         x="128.91257"
         y="125.49617"
         id="tspan56">      57           609            452            27</tspan><tspan
         sodipodi:role="line"
         style="font-style:normal;font-variant:normal;font-weight:normal;font-stretch:normal;font-size:3.88056px;line-height:1.9;font-family:Arial;-inkscape-font-specification:Arial;stroke-width:0.326"
         x="128.91257"
         y="132.86923"
         id="tspan76" /><tspan
         sodipodi:role="line"
         style="font-style:normal;font-variant:normal;font-weight:normal;font-stretch:normal;font-size:3.88056px;line-height:1.9;font-family:Arial;-inkscape-font-specification:Arial;stroke-width:0.326"
         x="128.91257"
         y="140.24229"
         id="tspan77">    163            22              45            249</tspan><tspan
         sodipodi:role="line"
         style="font-style:normal;font-variant:normal;font-weight:normal;font-stretch:normal;font-size:3.88056px;line-height:1.9;font-family:Arial;-inkscape-font-specification:Arial;stroke-width:0.326"
         x="128.91257"
         y="147.61536"
         id="tspan80">10100011 00010110  00101101 111110011</tspan><tspan
         sodipodi:role="line"
         style="font-style:normal;font-variant:normal;font-weight:normal;font-stretch:normal;font-size:4.58611px;line-height:1.9;font-family:Arial;-inkscape-font-specification:Arial;stroke-width:0.326"
         x="128.91257"
         y="155.85326"
         id="tspan81">     a3         16            2d           f9</tspan></text>
    <text
       xml:space="preserve"
       transform="scale(0.26458333)"
       id="text12"
       style="font-size:13.3333px;font-family:Arial;-inkscape-font-specification:Arial;text-align:start;white-space:pre;shape-inside:url(#rect12);display:inline;fill:#000000;fill-opacity:1;stroke:none;stroke-width:1.23213;stroke-linejoin:round;stroke-dasharray:none;stroke-opacity:1" />
    <rect
       style="fill:none;fill-opacity:1;stroke:#000000;stroke-width:0.330843;stroke-linejoin:round;stroke-dasharray:none;stroke-opacity:1"
       id="rect46"
       width="118.65849"
       height="7.5112624"
       x="84.957176"
       y="120.03233" />
    <rect
       style="fill:none;fill-opacity:1;stroke:#000000;stroke-width:0.470476;stroke-linejoin:round;stroke-dasharray:none;stroke-opacity:1"
       id="rect47"
       width="118.6585"
       height="15.18954"
       x="84.957176"
       y="127.57017" />
    <rect
       style="fill:none;fill-opacity:1;stroke:#000000;stroke-width:0.330843;stroke-linejoin:round;stroke-dasharray:none;stroke-opacity:1"
       id="rect48"
       width="118.65851"
       height="7.5112624"
       x="85.021019"
       y="142.75972" />
    <text
       xml:space="preserve"
       transform="matrix(0.26458333,0,0,0.26458333,15.780246,65.204334)"
       id="text60"
       style="font-style:normal;font-variant:normal;font-weight:normal;font-stretch:normal;font-size:14.6667px;line-height:1.9;font-family:Arial;-inkscape-font-specification:Arial;text-align:start;white-space:pre;shape-inside:url(#rect60);display:inline;fill:none;fill-opacity:1;stroke:#000000;stroke-width:1.23213;stroke-linejoin:round;stroke-dasharray:none;stroke-opacity:1" />
    <text
       xml:space="preserve"
       style="font-size:3.88056px;line-height:0;font-family:Arial;-inkscape-font-specification:Arial;text-align:start;text-anchor:start;fill:#000000;fill-opacity:1;stroke:none;stroke-width:0.326001;stroke-linejoin:round;stroke-dasharray:none;stroke-opacity:1"
       x="95.461433"
       y="100.89801"
       id="text64"><tspan
         sodipodi:role="line"
         style="font-style:normal;font-variant:normal;font-weight:bold;font-stretch:normal;line-height:1.9;font-family:Arial;-inkscape-font-specification:'Arial Bold';text-align:start;text-anchor:start;fill:#000000;fill-opacity:1;stroke:none;stroke-width:0.326"
         x="95.461433"
         y="100.89801"
         id="tspan64" /></text>
    <rect
       style="fill:none;fill-opacity:1;stroke:#000000;stroke-width:0.315803;stroke-linejoin:round;stroke-dasharray:none;stroke-opacity:1"
       id="rect78"
       width="118.67356"
       height="6.84302"
       x="84.949654"
       y="150.38219" />
    <rect
       style="fill:none;fill-opacity:1;stroke:#000000;stroke-width:0.2312;stroke-linejoin:round;stroke-dasharray:none;stroke-opacity:1"
       id="rect86-5-8"
       width="57.490505"
       height="7.5709682"
       x="20.346916"
       y="67.867004" />
    <rect
       style="fill:none;fill-opacity:1;stroke:#000000;stroke-width:0.326608;stroke-linejoin:round;stroke-dasharray:none;stroke-opacity:1"
       id="rect160"
       width="57.490505"
       height="15.108803"
       x="20.346916"
       y="75.437973" />
    <rect
       style="fill:none;fill-opacity:1;stroke:#000000;stroke-width:0.326608;stroke-linejoin:round;stroke-dasharray:none;stroke-opacity:1"
       id="rect161"
       width="57.490505"
       height="15.108803"
       x="20.273613"
       y="90.674461" />
    <rect
       style="fill:none;fill-opacity:1;stroke:#000000;stroke-width:0.326608;stroke-linejoin:round;stroke-dasharray:none;stroke-opacity:1"
       id="rect162"
       width="57.490505"
       height="15.108803"
       x="20.273613"
       y="105.78326" />
    <rect
       style="fill:none;fill-opacity:1;stroke:#000000;stroke-width:0.326608;stroke-linejoin:round;stroke-dasharray:none;stroke-opacity:1"
       id="rect163"
       width="57.490505"
       height="15.108803"
       x="20.273613"
       y="120.89207" />
    <rect
       style="fill:none;fill-opacity:1;stroke:#000000;stroke-width:0.326608;stroke-linejoin:round;stroke-dasharray:none;stroke-opacity:1"
       id="rect164"
       width="57.490505"
       height="15.108803"
       x="20.273613"
       y="136.12856" />
    <rect
       style="fill:none;fill-opacity:1;stroke:#000000;stroke-width:0.326608;stroke-linejoin:round;stroke-dasharray:none;stroke-opacity:1"
       id="rect165"
       width="57.490505"
       height="15.108803"
       x="20.273613"
       y="151.10966" />
    <text
       xml:space="preserve"
       style="font-style:normal;font-variant:normal;font-weight:normal;font-stretch:normal;font-size:3.88056px;line-height:1.93;font-family:Arial;-inkscape-font-specification:Arial;text-align:center;text-anchor:middle;white-space:pre;inline-size:48.1777;display:inline;fill:#000000;fill-opacity:1;stroke:none;stroke-width:0.326001;stroke-linejoin:round;stroke-dasharray:none;stroke-opacity:1"
       x="192.50374"
       y="79.66877"
       id="text97-3-6"
       transform="translate(-146.22239,-6.1495398)"><tspan
         x="192.50374"
         y="79.66877"
         id="tspan4"><tspan
           style="font-weight:bold;-inkscape-font-specification:'Arial Bold'"
           id="tspan2">Transaktionsdaten</tspan><tspan
           style="stroke-width:0.326"
           id="tspan3">&#10;</tspan></tspan><tspan
         x="192.50374"
         y="87.158251"
         id="tspan7"><tspan
           style="stroke-width:0.326"
           id="tspan6">Auftraggeber-Adresse:&#10;</tspan></tspan><tspan
         x="192.50374"
         y="94.657157"
         id="tspan10"><tspan
           style="font-style:italic;-inkscape-font-specification:'Arial Italic'"
           id="tspan8">e=61, n=629</tspan><tspan
           style="stroke-width:0.326"
           id="tspan9">&#10;</tspan></tspan><tspan
         x="192.50374"
         y="102.14664"
         id="tspan14"><tspan
           style="stroke-width:0.326"
           id="tspan11">Empfänger-Adresse:&#10;</tspan></tspan><tspan
         x="192.50374"
         y="109.64555"
         id="tspan19"><tspan
           style="font-style:italic;-inkscape-font-specification:'Arial Italic'"
           id="tspan15">e=37, n=377</tspan><tspan
           style="stroke-width:0.326"
           id="tspan18">&#10;</tspan></tspan><tspan
         x="192.50374"
         y="117.13503"
         id="tspan23"><tspan
           style="stroke-width:0.326"
           id="tspan20">zu überweisender Betrag:&#10;</tspan></tspan><tspan
         x="192.50374"
         y="124.63393"
         id="tspan26"><tspan
           style="font-style:italic;-inkscape-font-specification:'Arial Italic'"
           id="tspan24">100 SiC</tspan><tspan
           style="stroke-width:0.326"
           id="tspan25">&#10;</tspan></tspan><tspan
         x="192.50374"
         y="132.12342"
         id="tspan29"><tspan
           style="stroke-width:0.326"
           id="tspan28">Transaktionsgebühr:&#10;</tspan></tspan><tspan
         x="192.50374"
         y="139.62233"
         id="tspan34"><tspan
           style="font-style:italic;-inkscape-font-specification:'Arial Italic'"
           id="tspan30">0,03 SiC</tspan><tspan
           style="stroke-width:0.326"
           id="tspan33">&#10;</tspan></tspan><tspan
         x="192.50374"
         y="147.1118"
         id="tspan38"><tspan
           style="stroke-width:0.326"
           id="tspan35">Zeitstempel:&#10;</tspan></tspan><tspan
         x="192.50374"
         y="154.61072"
         id="tspan42"><tspan
           style="font-style:italic;-inkscape-font-specification:'Arial Italic'"
           id="tspan39">12.04.2024 19:31:20,32</tspan><tspan
           style="stroke-width:0.326"
           id="tspan40">&#10;</tspan></tspan><tspan
         x="192.50374"
         y="162.10019"
         id="tspan44"><tspan
           style="stroke-width:0.326"
           id="tspan43">Hashwert Transaktion:&#10;</tspan></tspan><tspan
         x="192.50374"
         y="169.59911"
         id="tspan47"><tspan
           style="font-style:italic;-inkscape-font-specification:'Arial Italic'"
           id="tspan45">a3162df9</tspan><tspan
           style="font-weight:bold;-inkscape-font-specification:'Arial Bold'"
           id="tspan46">&#10;</tspan></tspan><tspan
         x="192.50374"
         y="177.08858"
         id="tspan52"><tspan
           style="font-weight:bold;-inkscape-font-specification:'Arial Bold'"
           id="tspan48">Digitale Signatur:&#10;</tspan></tspan><tspan
         x="192.50374"
         y="184.57807"
         id="tspan55"><tspan
           style="font-weight:bold;-inkscape-font-specification:'Arial Bold'"
           id="tspan54">57  609  452  27</tspan></tspan></text>
    <text
       xml:space="preserve"
       transform="matrix(0.26458333,0,0,0.26458333,18.285613,66.343135)"
       id="text59"
       style="font-style:italic;font-size:12px;line-height:1.9;font-family:Arial;-inkscape-font-specification:'Arial Italic';text-align:center;white-space:pre;shape-inside:url(#rect59);display:inline;fill:none;stroke:#000000;stroke-width:2.03717;stroke-linejoin:round" />
    <rect
       style="fill:none;fill-opacity:1;stroke:#000000;stroke-width:0.326608;stroke-linejoin:round;stroke-dasharray:none;stroke-opacity:1"
       id="rect81"
       width="57.490505"
       height="15.108803"
       x="20.273613"
       y="166.21848" />
    <text
       xml:space="preserve"
       style="font-weight:bold;font-size:4.5861px;line-height:1.8;font-family:Arial;-inkscape-font-specification:'Arial Bold';text-align:start;text-anchor:start;fill:#ffffff;stroke:#000000;stroke-width:0.494001;stroke-linejoin:round;stroke-dasharray:1.97601, 0.494001"
       x="121.7067"
       y="83.922417"
       id="text2"><tspan
         sodipodi:role="line"
         id="tspan1"
         style="font-style:normal;font-variant:normal;font-weight:normal;font-stretch:normal;font-size:4.23333px;line-height:1.8;font-family:Arial;-inkscape-font-specification:Arial;text-align:start;text-anchor:start;fill:#000000;stroke:none;stroke-width:0.494"
         x="121.7067"
         y="83.922417">... alle Daten korrekt eingegebern</tspan><tspan
         sodipodi:role="line"
         style="font-style:normal;font-variant:normal;font-weight:normal;font-stretch:normal;font-size:4.23333px;line-height:1.8;font-family:Arial;-inkscape-font-specification:Arial;text-align:start;text-anchor:start;fill:#000000;stroke:none;stroke-width:0.494"
         x="121.7067"
         y="92.177399"
         id="tspan13">... Konto Auftraggeber vorhanden</tspan><tspan
         sodipodi:role="line"
         style="font-style:normal;font-variant:normal;font-weight:normal;font-stretch:normal;font-size:4.23333px;line-height:1.8;font-family:Arial;-inkscape-font-specification:Arial;text-align:start;text-anchor:start;fill:#000000;stroke:none;stroke-width:0.494"
         x="121.7067"
         y="100.43237"
         id="tspan16">... Konto Empfänger vorhanden</tspan><tspan
         sodipodi:role="line"
         style="font-style:normal;font-variant:normal;font-weight:normal;font-stretch:normal;font-size:4.23333px;line-height:1.8;font-family:Arial;-inkscape-font-specification:Arial;text-align:start;text-anchor:start;fill:#000000;stroke:none;stroke-width:0.494"
         x="121.7067"
         y="108.68736"
         id="tspan17">... Betrag niedriger als Kontostand</tspan><tspan
         sodipodi:role="line"
         style="line-height:1.8;text-align:start;text-anchor:start;stroke-width:0.494"
         x="121.7067"
         y="116.94234"
         id="tspan12" /></text>
    <path
       style="fill:#008000;stroke:none;stroke-width:0.189368;stroke-linejoin:round;stroke-dasharray:0.757473, 0.189368"
       id="path22"
       d="m 112.11974,81.499134 c 0.43327,0.29039 0.81719,0.63803 1.17627,1.00665 0.23981,0.25872 0.43065,0.54979 0.5876,0.85916 0.12861,0.27527 0.19622,0.56976 0.30334,0.85243 0.26195,0.67318 0.18559,0.66555 1.59115,0.86169 0.12055,0.0168 0.1047,-0.20849 0.1567,-0.31289 0.0771,-0.15477 0.15376,-0.30974 0.23064,-0.46461 0.5059,-0.96333 1.1198,-1.8729 1.80628,-2.72903 0.24299,-0.31274 0.53276,-0.58697 0.81041,-0.87094 0.27205,-0.29806 0.5065,-0.62336 0.78866,-0.91366 0.12981,-0.13428 0.2515,-0.27498 0.39204,-0.39933 0,0 -1.30994,-0.760935 -1.30994,-0.760935 v 0 c -0.13358,0.133421 -0.25551,0.276109 -0.37667,0.41975 -0.26622,0.301973 -0.51388,0.618525 -0.79806,0.906235 -0.27065,0.29474 -0.56305,0.57237 -0.76413,0.91844 -0.59932,0.9165 -1.18781,1.83965 -1.76681,2.76774 -0.0932,0.14448 -0.18288,0.29102 -0.27955,0.43342 -0.0619,0.0912 -0.27465,0.18837 -0.19591,0.267 0.34608,0.34557 0.83386,0.53264 1.25596,0.7915 0.0237,0.0145 -0.0455,-0.0341 -0.0591,-0.0575 -0.0446,-0.0769 -0.0442,-0.17284 -0.0962,-0.24713 -0.12099,-0.28453 -0.18746,-0.58571 -0.31476,-0.86814 -0.15162,-0.32635 -0.32331,-0.63761 -0.57886,-0.90409 -0.35051,-0.36271 -0.72454,-0.70532 -1.12689,-1.01619 z" />
    <path
       style="fill:#008000;stroke:none;stroke-width:0.189368;stroke-linejoin:round;stroke-dasharray:0.757473, 0.189368"
       id="path23"
       d="m 111.89198,89.926281 c 0.43327,0.29039 0.81719,0.63803 1.17627,1.00665 0.23981,0.25872 0.43065,0.54979 0.5876,0.85916 0.12861,0.27527 0.19622,0.56976 0.30334,0.85243 0.26195,0.67318 0.18559,0.66555 1.59115,0.86169 0.12055,0.0168 0.10469,-0.20849 0.1567,-0.31289 0.0771,-0.15477 0.15376,-0.30974 0.23063,-0.46461 0.50591,-0.96333 1.11981,-1.8729 1.80628,-2.72903 0.243,-0.31274 0.53277,-0.58697 0.81042,-0.87094 0.27205,-0.29806 0.5065,-0.62336 0.78866,-0.91366 0.12981,-0.13428 0.2515,-0.27498 0.39204,-0.39933 0,0 -1.30995,-0.760935 -1.30995,-0.760935 v 0 c -0.13357,0.133421 -0.2555,0.276109 -0.37666,0.41975 -0.26622,0.301973 -0.51388,0.618525 -0.79806,0.906235 -0.27065,0.29474 -0.56305,0.57237 -0.76413,0.91844 -0.59933,0.9165 -1.18781,1.83965 -1.76681,2.76774 -0.0932,0.14448 -0.18288,0.29102 -0.27955,0.43342 -0.0619,0.0912 -0.27465,0.18837 -0.19591,0.267 0.34608,0.34557 0.83386,0.53264 1.25595,0.7915 0.0237,0.0145 -0.0455,-0.0341 -0.0591,-0.0575 -0.0447,-0.0769 -0.0442,-0.17284 -0.0962,-0.24713 -0.12098,-0.28453 -0.18746,-0.58571 -0.31475,-0.86814 -0.15162,-0.32635 -0.32331,-0.63761 -0.57886,-0.90409 -0.35051,-0.36271 -0.72454,-0.70532 -1.12689,-1.01619 z" />
    <path
       style="fill:#008000;stroke:none;stroke-width:0.189368;stroke-linejoin:round;stroke-dasharray:0.757473, 0.189368"
       id="path24"
       d="m 112.11974,97.897907 c 0.43327,0.29039 0.81719,0.63803 1.17627,1.00665 0.23981,0.25872 0.43065,0.54979 0.5876,0.85916 0.12861,0.275273 0.19622,0.569763 0.30334,0.852433 0.26195,0.67318 0.18559,0.66555 1.59115,0.86169 0.12055,0.0168 0.1047,-0.20849 0.1567,-0.31289 0.0771,-0.15477 0.15376,-0.30974 0.23064,-0.46461 0.5059,-0.963333 1.1198,-1.872903 1.80628,-2.729033 0.24299,-0.31274 0.53276,-0.58697 0.81041,-0.87094 0.27205,-0.29806 0.5065,-0.62336 0.78866,-0.91366 0.12981,-0.13428 0.2515,-0.27498 0.39204,-0.39933 0,0 -1.30994,-0.760935 -1.30994,-0.760935 v 0 c -0.13358,0.133421 -0.25551,0.276109 -0.37667,0.41975 -0.26622,0.301973 -0.51388,0.618525 -0.79806,0.906235 -0.27065,0.29474 -0.56305,0.57237 -0.76413,0.91844 -0.59932,0.9165 -1.18781,1.83965 -1.76681,2.767743 -0.0932,0.14448 -0.18288,0.29102 -0.27955,0.43342 -0.0619,0.0912 -0.27465,0.18837 -0.19591,0.267 0.34608,0.34557 0.83386,0.53264 1.25596,0.7915 0.0237,0.0145 -0.0455,-0.0341 -0.0591,-0.0575 -0.0446,-0.0769 -0.0442,-0.17284 -0.0962,-0.24713 -0.12099,-0.28453 -0.18746,-0.58571 -0.31476,-0.86814 -0.15162,-0.32635 -0.32331,-0.637613 -0.57886,-0.904093 -0.35051,-0.36271 -0.72454,-0.70532 -1.12689,-1.01619 z" />
    <rect
       style="fill:#008000;stroke-width:0.494001;stroke-linejoin:round;stroke-dasharray:1.97601, 0.494001"
       id="rect1"
       width="33.480827"
       height="13.474049"
       x="137.63484"
       y="162.91922" />
    <text
       xml:space="preserve"
       style="font-style:normal;font-variant:normal;font-weight:normal;font-stretch:normal;font-size:4.23333px;line-height:1.1;font-family:Arial;-inkscape-font-specification:Arial;text-align:start;text-anchor:start;white-space:pre;inline-size:34.652;display:inline;fill:#008000;fill-opacity:1;stroke:none;stroke-width:0.494001;stroke-linejoin:round;stroke-dasharray:1.97601, 0.494001"
       x="117.77774"
       y="166.59956"
       id="text26"
       transform="translate(19.07625,1.5943251)"><tspan
         x="117.77774"
         y="166.59956"
         id="tspan59"><tspan
           style="font-weight:bold;-inkscape-font-specification:'Arial Bold';text-align:center;text-anchor:middle;fill:#000000;stroke-width:0.494"
           id="tspan58">Transaktion </tspan></tspan><tspan
         x="117.77774"
         y="171.25622"
         id="tspan61"><tspan
           style="font-weight:bold;-inkscape-font-specification:'Arial Bold';text-align:center;text-anchor:middle;fill:#000000;stroke-width:0.494"
           id="tspan60">gültig</tspan></tspan></text>
    <path
       style="fill:#008000;stroke:none;stroke-width:0.189368;stroke-linejoin:round;stroke-dasharray:0.757473, 0.189368"
       id="path27"
       d="m 112.3475,106.55281 c 0.43327,0.29039 0.81719,0.63803 1.17627,1.00665 0.23981,0.25872 0.43065,0.54979 0.5876,0.85916 0.12861,0.27528 0.19622,0.56977 0.30334,0.85244 0.26195,0.67318 0.18559,0.66555 1.59115,0.86169 0.12055,0.0168 0.1047,-0.20849 0.1567,-0.31289 0.0771,-0.15477 0.15376,-0.30974 0.23064,-0.46461 0.5059,-0.96334 1.1198,-1.87291 1.80628,-2.72904 0.24299,-0.31274 0.53276,-0.58697 0.81041,-0.87094 0.27205,-0.29806 0.5065,-0.62336 0.78866,-0.91366 0.12981,-0.13428 0.2515,-0.27498 0.39204,-0.39933 0,0 -1.30994,-0.76093 -1.30994,-0.76093 v 0 c -0.13358,0.13342 -0.25551,0.27611 -0.37667,0.41975 -0.26622,0.30197 -0.51388,0.61852 -0.79806,0.90623 -0.27065,0.29474 -0.56305,0.57237 -0.76413,0.91844 -0.59932,0.9165 -1.18781,1.83965 -1.76681,2.76775 -0.0932,0.14448 -0.18288,0.29102 -0.27955,0.43342 -0.0619,0.0912 -0.27465,0.18837 -0.19591,0.267 0.34608,0.34557 0.83386,0.53264 1.25596,0.7915 0.0237,0.0145 -0.0455,-0.0341 -0.0591,-0.0575 -0.0446,-0.0769 -0.0442,-0.17284 -0.0962,-0.24713 -0.12099,-0.28453 -0.18746,-0.58571 -0.31476,-0.86814 -0.15162,-0.32635 -0.32331,-0.63762 -0.57886,-0.9041 -0.35051,-0.36271 -0.72454,-0.70532 -1.12689,-1.01619 z" />
  </g>
</svg>
