<?xml version="1.0" encoding="UTF-8" standalone="no"?>
<!-- Created with Inkscape (http://www.inkscape.org/) -->

<svg
   width="108.74302mm"
   height="156.52164mm"
   viewBox="0 0 108.74302 156.52164"
   version="1.1"
   id="svg1"
   inkscape:version="1.3 (0e150ed6c4, 2023-07-21)"
   sodipodi:docname="dynamik_3.svg"
   xmlns:inkscape="http://www.inkscape.org/namespaces/inkscape"
   xmlns:sodipodi="http://sodipodi.sourceforge.net/DTD/sodipodi-0.dtd"
   xmlns="http://www.w3.org/2000/svg"
   xmlns:svg="http://www.w3.org/2000/svg">
  <sodipodi:namedview
     id="namedview1"
     pagecolor="#ffffff"
     bordercolor="#999999"
     borderopacity="1"
     inkscape:showpageshadow="2"
     inkscape:pageopacity="0"
     inkscape:pagecheckerboard="0"
     inkscape:deskcolor="#d1d1d1"
     inkscape:document-units="mm"
     showgrid="false"
     inkscape:zoom="0.58083614"
     inkscape:cx="210.04203"
     inkscape:cy="495.83692"
     inkscape:window-width="1440"
     inkscape:window-height="890"
     inkscape:window-x="-6"
     inkscape:window-y="-6"
     inkscape:window-maximized="1"
     inkscape:current-layer="layer1" />
  <defs
     id="defs1">
    <radialGradient
       cx="57150"
       cy="61912.5"
       r="84257.203"
       fx="57150"
       fy="61912.5"
       gradientUnits="userSpaceOnUse"
       spreadMethod="pad"
       id="fill0"
       gradientTransform="matrix(1.04987e-4,0,0,1.04987e-4,214.5,70.5001)">
      <stop
         offset="0"
         stop-color="#95ABEA"
         id="stop1" />
      <stop
         offset="0.5"
         stop-color="#BFCBF0"
         id="stop2" />
      <stop
         offset="1"
         stop-color="#E0E5F7"
         id="stop3" />
    </radialGradient>
    <linearGradient
       x1="220.5"
       y1="111.5"
       x2="220.5"
       y2="152.5"
       gradientUnits="userSpaceOnUse"
       spreadMethod="reflect"
       id="fill1">
      <stop
         offset="0"
         stop-color="#FEF8F5"
         id="stop4" />
      <stop
         offset="0.74"
         stop-color="#F7C4A2"
         id="stop5" />
      <stop
         offset="0.83"
         stop-color="#F7C4A2"
         id="stop6" />
      <stop
         offset="1"
         stop-color="#FAD8C1"
         id="stop7" />
    </linearGradient>
    <linearGradient
       x1="220.5"
       y1="260.5"
       x2="220.5"
       y2="301.5"
       gradientUnits="userSpaceOnUse"
       spreadMethod="reflect"
       id="fill2">
      <stop
         offset="0"
         stop-color="#FEF8F5"
         id="stop8" />
      <stop
         offset="0.74"
         stop-color="#F7C4A2"
         id="stop9" />
      <stop
         offset="0.83"
         stop-color="#F7C4A2"
         id="stop10" />
      <stop
         offset="1"
         stop-color="#FAD8C1"
         id="stop11" />
    </linearGradient>
    <linearGradient
       x1="221"
       y1="186.5"
       x2="221"
       y2="227.5"
       gradientUnits="userSpaceOnUse"
       spreadMethod="reflect"
       id="fill3">
      <stop
         offset="0"
         stop-color="#FEF8F5"
         id="stop12" />
      <stop
         offset="0.74"
         stop-color="#F7C4A2"
         id="stop13" />
      <stop
         offset="0.83"
         stop-color="#F7C4A2"
         id="stop14" />
      <stop
         offset="1"
         stop-color="#FAD8C1"
         id="stop15" />
    </linearGradient>
    <radialGradient
       cx="61912.5"
       cy="80962.5"
       r="101922"
       fx="61912.5"
       gradientUnits="userSpaceOnUse"
       spreadMethod="pad"
       id="fill4"
       gradientTransform="matrix(1.04987e-4,0,0,1.04987e-4,214.5,338.5)">
      <stop
         offset="0"
         stop-color="#95ABEA"
         id="stop16" />
      <stop
         offset="0.5"
         stop-color="#BFCBF0"
         id="stop17" />
      <stop
         offset="1"
         stop-color="#E0E5F7"
         id="stop18" />
    </radialGradient>
    <linearGradient
       x1="359.5"
       y1="325.5"
       x2="359.5"
       y2="366.5"
       gradientUnits="userSpaceOnUse"
       spreadMethod="reflect"
       id="fill5">
      <stop
         offset="0"
         stop-color="#FEF8F5"
         id="stop19" />
      <stop
         offset="0.74"
         stop-color="#F7C4A2"
         id="stop20" />
      <stop
         offset="0.83"
         stop-color="#F7C4A2"
         id="stop21" />
      <stop
         offset="1"
         stop-color="#FAD8C1"
         id="stop22" />
    </linearGradient>
    <linearGradient
       x1="359.5"
       y1="260.5"
       x2="359.5"
       y2="301.5"
       gradientUnits="userSpaceOnUse"
       spreadMethod="reflect"
       id="fill6">
      <stop
         offset="0"
         stop-color="#FEF8F5"
         id="stop23" />
      <stop
         offset="0.74"
         stop-color="#F7C4A2"
         id="stop24" />
      <stop
         offset="0.83"
         stop-color="#F7C4A2"
         id="stop25" />
      <stop
         offset="1"
         stop-color="#FAD8C1"
         id="stop26" />
    </linearGradient>
    <radialGradient
       cx="61912.5"
       cy="61912.5"
       r="87557.5"
       fx="61912.5"
       fy="61912.5"
       gradientUnits="userSpaceOnUse"
       spreadMethod="pad"
       id="fill7"
       gradientTransform="matrix(1.04987e-4,0,0,1.04987e-4,214.5,389.5)">
      <stop
         offset="0"
         stop-color="#95ABEA"
         id="stop27" />
      <stop
         offset="0.5"
         stop-color="#BFCBF0"
         id="stop28" />
      <stop
         offset="1"
         stop-color="#E0E5F7"
         id="stop29" />
    </radialGradient>
  </defs>
  <g
     inkscape:label="Ebene 1"
     inkscape:groupmode="layer"
     id="layer1"
     transform="translate(-49.169134,-11.597596)">
    <g
       transform="matrix(0.46537667,0,0,0.46537667,-28.626333,-20.901255)"
       id="g53">
      <path
         d="m 214.5,77.0001 c 0,-3.5899 2.686,-6.5 6,-6.5 3.314,0 6,2.9101 6,6.5 0,3.5898 -2.686,6.5 -6,6.5 -3.314,0 -6,-2.9102 -6,-6.5 z"
         stroke="#2f528f"
         stroke-width="1.33333"
         stroke-miterlimit="8"
         fill="url(#fill0)"
         fill-rule="evenodd"
         id="path29"
         style="fill:url(#fill0)" />
      <path
         d="m 173.5,118.334 c 0,-3.774 3.06,-6.834 6.834,-6.834 h 80.333 c 3.774,0 6.833,3.06 6.833,6.834 v 27.333 c 0,3.774 -3.059,6.833 -6.833,6.833 h -80.333 c -3.774,0 -6.834,-3.059 -6.834,-6.833 z"
         stroke="#000000"
         stroke-width="0.666667"
         stroke-miterlimit="8"
         fill="url(#fill1)"
         fill-rule="evenodd"
         id="path30"
         style="fill:url(#fill1)" />
      <text
         font-family="Calibri, Calibri_MSFontService, sans-serif"
         font-weight="400"
         font-size="8px"
         transform="translate(186.823,129)"
         id="text30">User klickt auf Start</text>
      <text
         font-family="Calibri, Calibri_MSFontService, sans-serif"
         font-weight="400"
         font-size="8px"
         transform="translate(250.656,129)"
         id="text31">-</text>
      <text
         font-family="Calibri, Calibri_MSFontService, sans-serif"
         font-weight="400"
         font-size="8px"
         transform="translate(208.903,139)"
         id="text32">Button</text>
      <path
         d="m 167.5,267.333 c 0,-3.774 3.059,-6.833 6.833,-6.833 h 92.334 c 3.774,0 6.833,3.059 6.833,6.833 v 27.334 c 0,3.774 -3.059,6.833 -6.833,6.833 h -92.334 c -3.774,0 -6.833,-3.059 -6.833,-6.833 z"
         stroke="#000000"
         stroke-width="0.666667"
         stroke-miterlimit="8"
         fill="url(#fill2)"
         fill-rule="evenodd"
         id="path32"
         style="fill:url(#fill2)" />
      <text
         font-family="Calibri, Calibri_MSFontService, sans-serif"
         font-weight="400"
         font-size="8px"
         transform="translate(178.323,273)"
         id="text33">User macht Eingaben und</text>
      <text
         font-family="Calibri, Calibri_MSFontService, sans-serif"
         font-weight="400"
         font-size="8px"
         transform="translate(182.903,283)"
         id="text34">bestätigt durch Klicken</text>
      <text
         font-family="Calibri, Calibri_MSFontService, sans-serif"
         font-weight="400"
         font-size="8px"
         transform="translate(196.736,293)"
         id="text35">auf OK</text>
      <text
         font-family="Calibri, Calibri_MSFontService, sans-serif"
         font-weight="400"
         font-size="8px"
         transform="translate(218.569,293)"
         id="text36">-</text>
      <text
         font-family="Calibri, Calibri_MSFontService, sans-serif"
         font-weight="400"
         font-size="8px"
         transform="translate(221.069,293)"
         id="text37">Button</text>
      <path
         d="m 177.5,193.334 c 0,-3.775 3.059,-6.834 6.833,-6.834 h 73.334 c 3.774,0 6.833,3.059 6.833,6.834 v 27.333 c 0,3.774 -3.059,6.833 -6.833,6.833 h -73.334 c -3.774,0 -6.833,-3.059 -6.833,-6.833 z"
         stroke="#000000"
         stroke-width="0.666667"
         stroke-miterlimit="8"
         fill="url(#fill3)"
         fill-rule="evenodd"
         id="path37"
         style="fill:url(#fill3)" />
      <text
         font-family="Calibri, Calibri_MSFontService, sans-serif"
         font-weight="400"
         font-size="8px"
         transform="translate(193.136,204)"
         id="text38">Eingabeformular</text>
      <text
         font-family="Calibri, Calibri_MSFontService, sans-serif"
         font-weight="400"
         font-size="8px"
         transform="translate(199.056,214)"
         id="text39">wird sichtbar</text>
      <path
         d="m 220.833,83.5001 v 21.1519 h -0.666 V 83.5001 Z m 3.667,19.8179 -4,8 -4,-8 z"
         id="path39" />
      <path
         d="M 0.333325,-0.00230665 0.516904,26.5259 -0.149747,26.5305 -0.333325,0.00230665 Z M 4.17426,25.1673 0.229711,33.1947 -3.82555,25.2226 Z"
         transform="matrix(-1,0,0,1,220.73,227.5)"
         id="path40" />
      <path
         d="m 220.833,152.498 0.185,27.408 -0.667,0.004 -0.184,-27.408 z m 3.843,26.05 -3.946,8.026 -4.054,-7.972 z"
         id="path41" />
      <path
         d="m 214.5,347 6.5,-8.5 6.5,8.5 -6.5,8.5 z"
         stroke="#2f528f"
         stroke-width="1.33333"
         stroke-miterlimit="8"
         fill="url(#fill4)"
         fill-rule="evenodd"
         id="path42"
         style="fill:url(#fill4)" />
      <path
         d="m 220.833,355.5 v 23.268 h -0.666 V 355.5 Z m 3.667,21.935 -4,8 -4,-8 z"
         id="path43" />
      <path
         d="m 220.833,301.496 0.402,30.194 -0.666,0.009 -0.402,-30.195 z m 4.051,28.812 -3.893,8.052 -4.106,-7.946 z"
         id="path44" />
      <path
         d="M 0.00370259,-0.333313 84.4364,0.604605 84.429,1.27123 -0.00370259,0.333313 Z M 83.1438,-3.07665 91.0989,1.01197 83.055,4.92286 Z"
         transform="matrix(1,0,0,-1,227.5,347.512)"
         id="path45" />
      <text
         font-family="Calibri, Calibri_MSFontService, sans-serif"
         font-weight="400"
         font-size="8px"
         transform="translate(235.443,339)"
         id="text45">[Eingabe nicht OK]</text>
      <path
         d="m 318.5,332.334 c 0,-3.774 3.06,-6.834 6.834,-6.834 h 68.333 c 3.774,0 6.833,3.06 6.833,6.834 v 27.333 c 0,3.774 -3.059,6.833 -6.833,6.833 h -68.333 c -3.774,0 -6.834,-3.059 -6.834,-6.833 z"
         stroke="#000000"
         stroke-width="0.666667"
         stroke-miterlimit="8"
         fill="url(#fill5)"
         fill-rule="evenodd"
         id="path46"
         style="fill:url(#fill5)" />
      <text
         font-family="Calibri, Calibri_MSFontService, sans-serif"
         font-weight="400"
         font-size="8px"
         transform="translate(337.543,343)"
         id="text46">Warnhinweis</text>
      <text
         font-family="Calibri, Calibri_MSFontService, sans-serif"
         font-weight="400"
         font-size="8px"
         transform="translate(337.796,353)"
         id="text47">wird sichtbar</text>
      <path
         d="m 318.5,267.334 c 0,-3.774 3.06,-6.834 6.834,-6.834 h 68.333 c 3.774,0 6.833,3.06 6.833,6.834 v 27.333 c 0,3.774 -3.059,6.833 -6.833,6.833 h -68.333 c -3.774,0 -6.834,-3.059 -6.834,-6.833 z"
         stroke="#000000"
         stroke-width="0.666667"
         stroke-miterlimit="8"
         fill="url(#fill6)"
         fill-rule="evenodd"
         id="path47"
         style="fill:url(#fill6)" />
      <text
         font-family="Calibri, Calibri_MSFontService, sans-serif"
         font-weight="400"
         font-size="8px"
         transform="translate(336.043,273)"
         id="text48">User bestätigt</text>
      <text
         font-family="Calibri, Calibri_MSFontService, sans-serif"
         font-weight="400"
         font-size="8px"
         transform="translate(331.209,283)"
         id="text49">Warnhinweis mit</text>
      <text
         font-family="Calibri, Calibri_MSFontService, sans-serif"
         font-weight="400"
         font-size="8px"
         transform="translate(353.209,293)"
         id="text50">OK.</text>
      <path
         d="M 0.333333,-1.44026e-6 0.333409,17.6315 H -0.333257 L -0.333333,1.44026e-6 Z M 4.00007,16.2981 1.04987e-4,24.2982 -3.99993,16.2982 Z"
         transform="matrix(1,0,0,-1,359.5,325.798)"
         id="path50" />
      <path
         d="M 0.00372983,-0.333312 37.8647,0.0903589 37.8573,0.756984 -0.00372983,0.333312 Z M 36.5725,-3.591 44.5272,0.498268 36.483,4.4085 Z"
         transform="matrix(-1,0,0,1,318.027,280.5)"
         id="path51" />
      <text
         font-family="Calibri, Calibri_MSFontService, sans-serif"
         font-weight="400"
         font-size="8px"
         transform="translate(173.308,367)"
         id="text51">[Eingabe OK]</text>
      <path
         d="m 214.5,396 c 0,-3.59 2.91,-6.5 6.5,-6.5 3.59,0 6.5,2.91 6.5,6.5 0,3.59 -2.91,6.5 -6.5,6.5 -3.59,0 -6.5,-2.91 -6.5,-6.5 z"
         stroke="#2f528f"
         stroke-width="1.33333"
         stroke-miterlimit="8"
         fill="url(#fill7)"
         fill-rule="evenodd"
         id="path52"
         style="fill:url(#fill7)" />
      <path
         d="m 211.5,396 c 0,-5.247 4.253,-9.5 9.5,-9.5 5.247,0 9.5,4.253 9.5,9.5 0,5.247 -4.253,9.5 -9.5,9.5 -5.247,0 -9.5,-4.253 -9.5,-9.5 z"
         stroke="#2f528f"
         stroke-width="1.33333"
         stroke-miterlimit="8"
         fill="none"
         fill-rule="evenodd"
         id="path53" />
    </g>
  </g>
</svg>
