<?xml version="1.0" encoding="UTF-8" standalone="no"?>
<!-- Created with Inkscape (http://www.inkscape.org/) -->

<svg
   width="139.96973mm"
   height="248.91396mm"
   viewBox="0 0 139.96973 248.91396"
   version="1.1"
   id="svg1"
   inkscape:version="1.3 (0e150ed6c4, 2023-07-21)"
   sodipodi:docname="dynamik_2.svg"
   xmlns:inkscape="http://www.inkscape.org/namespaces/inkscape"
   xmlns:sodipodi="http://sodipodi.sourceforge.net/DTD/sodipodi-0.dtd"
   xmlns="http://www.w3.org/2000/svg"
   xmlns:svg="http://www.w3.org/2000/svg">
  <sodipodi:namedview
     id="namedview1"
     pagecolor="#ffffff"
     bordercolor="#999999"
     borderopacity="1"
     inkscape:showpageshadow="2"
     inkscape:pageopacity="0"
     inkscape:pagecheckerboard="0"
     inkscape:deskcolor="#d1d1d1"
     inkscape:document-units="mm"
     showgrid="false"
     inkscape:zoom="0.58083614"
     inkscape:cx="177.33056"
     inkscape:cy="509.61016"
     inkscape:window-width="1440"
     inkscape:window-height="890"
     inkscape:window-x="-6"
     inkscape:window-y="-6"
     inkscape:window-maximized="1"
     inkscape:current-layer="layer1" />
  <defs
     id="defs1">
    <radialGradient
       cx="57150"
       cy="61912.5"
       r="84257.203"
       fx="57150"
       fy="61912.5"
       gradientUnits="userSpaceOnUse"
       spreadMethod="pad"
       id="fill0"
       gradientTransform="matrix(1.04987e-4,0,0,1.04987e-4,293.5,69.5001)">
      <stop
         offset="0"
         stop-color="#95ABEA"
         id="stop1" />
      <stop
         offset="0.5"
         stop-color="#BFCBF0"
         id="stop2" />
      <stop
         offset="1"
         stop-color="#E0E5F7"
         id="stop3" />
    </radialGradient>
    <radialGradient
       cx="57150"
       cy="61912.5"
       r="84257.203"
       fx="57150"
       fy="61912.5"
       gradientUnits="userSpaceOnUse"
       spreadMethod="pad"
       id="fill1"
       gradientTransform="matrix(1.04987e-4,0,0,1.04987e-4,189.5,822.5)">
      <stop
         offset="0"
         stop-color="#95ABEA"
         id="stop4" />
      <stop
         offset="0.5"
         stop-color="#BFCBF0"
         id="stop5" />
      <stop
         offset="1"
         stop-color="#E0E5F7"
         id="stop6" />
    </radialGradient>
    <radialGradient
       cx="61912.5"
       cy="80962.5"
       r="101922"
       fx="61912.5"
       gradientUnits="userSpaceOnUse"
       spreadMethod="pad"
       id="fill2"
       gradientTransform="matrix(1.04987e-4,0,0,1.04987e-4,305.5,374.5)">
      <stop
         offset="0"
         stop-color="#95ABEA"
         id="stop7" />
      <stop
         offset="0.5"
         stop-color="#BFCBF0"
         id="stop8" />
      <stop
         offset="1"
         stop-color="#E0E5F7"
         id="stop9" />
    </radialGradient>
    <linearGradient
       x1="299.5"
       y1="109.5"
       x2="299.5"
       y2="150.5"
       gradientUnits="userSpaceOnUse"
       spreadMethod="reflect"
       id="fill3">
      <stop
         offset="0"
         stop-color="#FEF8F5"
         id="stop10" />
      <stop
         offset="0.74"
         stop-color="#F7C4A2"
         id="stop11" />
      <stop
         offset="0.83"
         stop-color="#F7C4A2"
         id="stop12" />
      <stop
         offset="1"
         stop-color="#FAD8C1"
         id="stop13" />
    </linearGradient>
    <linearGradient
       x1="366.5"
       y1="276.5"
       x2="366.5"
       y2="317.5"
       gradientUnits="userSpaceOnUse"
       spreadMethod="reflect"
       id="fill4">
      <stop
         offset="0"
         stop-color="#FEF8F5"
         id="stop14" />
      <stop
         offset="0.74"
         stop-color="#F7C4A2"
         id="stop15" />
      <stop
         offset="0.83"
         stop-color="#F7C4A2"
         id="stop16" />
      <stop
         offset="1"
         stop-color="#FAD8C1"
         id="stop17" />
    </linearGradient>
    <linearGradient
       x1="382"
       y1="484.5"
       x2="382"
       y2="525.5"
       gradientUnits="userSpaceOnUse"
       spreadMethod="reflect"
       id="fill5">
      <stop
         offset="0"
         stop-color="#FEF8F5"
         id="stop18" />
      <stop
         offset="0.74"
         stop-color="#F7C4A2"
         id="stop19" />
      <stop
         offset="0.83"
         stop-color="#F7C4A2"
         id="stop20" />
      <stop
         offset="1"
         stop-color="#FAD8C1"
         id="stop21" />
    </linearGradient>
    <linearGradient
       x1="382"
       y1="415.5"
       x2="382"
       y2="456.5"
       gradientUnits="userSpaceOnUse"
       spreadMethod="reflect"
       id="fill6">
      <stop
         offset="0"
         stop-color="#FEF8F5"
         id="stop22" />
      <stop
         offset="0.74"
         stop-color="#F7C4A2"
         id="stop23" />
      <stop
         offset="0.83"
         stop-color="#F7C4A2"
         id="stop24" />
      <stop
         offset="1"
         stop-color="#FAD8C1"
         id="stop25" />
    </linearGradient>
    <linearGradient
       x1="256"
       y1="275.5"
       x2="256"
       y2="316.5"
       gradientUnits="userSpaceOnUse"
       spreadMethod="reflect"
       id="fill7">
      <stop
         offset="0"
         stop-color="#FEF8F5"
         id="stop26" />
      <stop
         offset="0.74"
         stop-color="#F7C4A2"
         id="stop27" />
      <stop
         offset="0.83"
         stop-color="#F7C4A2"
         id="stop28" />
      <stop
         offset="1"
         stop-color="#FAD8C1"
         id="stop29" />
    </linearGradient>
    <radialGradient
       cx="61912.5"
       cy="80962.5"
       r="101922"
       fx="61912.5"
       gradientUnits="userSpaceOnUse"
       spreadMethod="pad"
       id="fill8"
       gradientTransform="matrix(1.04987e-4,0,0,1.04987e-4,189.5,753.5)">
      <stop
         offset="0"
         stop-color="#95ABEA"
         id="stop30" />
      <stop
         offset="0.5"
         stop-color="#BFCBF0"
         id="stop31" />
      <stop
         offset="1"
         stop-color="#E0E5F7"
         id="stop32" />
    </radialGradient>
    <linearGradient
       x1="299"
       y1="173.5"
       x2="299"
       y2="215.5"
       gradientUnits="userSpaceOnUse"
       spreadMethod="reflect"
       id="fill9">
      <stop
         offset="0"
         stop-color="#FEF8F5"
         id="stop33" />
      <stop
         offset="0.74"
         stop-color="#F7C4A2"
         id="stop34" />
      <stop
         offset="0.83"
         stop-color="#F7C4A2"
         id="stop35" />
      <stop
         offset="1"
         stop-color="#FAD8C1"
         id="stop36" />
    </linearGradient>
    <radialGradient
       cx="61912.5"
       cy="80962.5"
       r="101922"
       fx="61912.5"
       gradientUnits="userSpaceOnUse"
       spreadMethod="pad"
       id="fill10"
       gradientTransform="matrix(1.04987e-4,0,0,1.04987e-4,375.5,548.5)">
      <stop
         offset="0"
         stop-color="#95ABEA"
         id="stop37" />
      <stop
         offset="0.5"
         stop-color="#BFCBF0"
         id="stop38" />
      <stop
         offset="1"
         stop-color="#E0E5F7"
         id="stop39" />
    </radialGradient>
    <linearGradient
       x1="382"
       y1="599.5"
       x2="382"
       y2="640.5"
       gradientUnits="userSpaceOnUse"
       spreadMethod="reflect"
       id="fill11">
      <stop
         offset="0"
         stop-color="#FEF8F5"
         id="stop40" />
      <stop
         offset="0.74"
         stop-color="#F7C4A2"
         id="stop41" />
      <stop
         offset="0.83"
         stop-color="#F7C4A2"
         id="stop42" />
      <stop
         offset="1"
         stop-color="#FAD8C1"
         id="stop43" />
    </linearGradient>
    <linearGradient
       x1="256.5"
       y1="536.5"
       x2="256.5"
       y2="577.5"
       gradientUnits="userSpaceOnUse"
       spreadMethod="reflect"
       id="fill12">
      <stop
         offset="0"
         stop-color="#FEF8F5"
         id="stop44" />
      <stop
         offset="0.74"
         stop-color="#F7C4A2"
         id="stop45" />
      <stop
         offset="0.83"
         stop-color="#F7C4A2"
         id="stop46" />
      <stop
         offset="1"
         stop-color="#FAD8C1"
         id="stop47" />
    </linearGradient>
    <linearGradient
       x1="138.5"
       y1="536.5"
       x2="138.5"
       y2="577.5"
       gradientUnits="userSpaceOnUse"
       spreadMethod="reflect"
       id="fill13">
      <stop
         offset="0"
         stop-color="#FEF8F5"
         id="stop48" />
      <stop
         offset="0.74"
         stop-color="#F7C4A2"
         id="stop49" />
      <stop
         offset="0.83"
         stop-color="#F7C4A2"
         id="stop50" />
      <stop
         offset="1"
         stop-color="#FAD8C1"
         id="stop51" />
    </linearGradient>
    <linearGradient
       x1="195.5"
       y1="688.5"
       x2="195.5"
       y2="729.5"
       gradientUnits="userSpaceOnUse"
       spreadMethod="reflect"
       id="fill14">
      <stop
         offset="0"
         stop-color="#FEF8F5"
         id="stop52" />
      <stop
         offset="0.74"
         stop-color="#F7C4A2"
         id="stop53" />
      <stop
         offset="0.83"
         stop-color="#F7C4A2"
         id="stop54" />
      <stop
         offset="1"
         stop-color="#FAD8C1"
         id="stop55" />
    </linearGradient>
  </defs>
  <g
     inkscape:label="Ebene 1"
     inkscape:groupmode="layer"
     id="layer1"
     transform="translate(-58.150862,-13.46586)">
    <g
       transform="matrix(0.32312504,0,0,0.32312504,31.335071,-8.7759461)"
       id="g134">
      <path
         d="m 293.5,76.0001 c 0,-3.5899 2.686,-6.5 6,-6.5 3.314,0 6,2.9101 6,6.5 0,3.5898 -2.686,6.5 -6,6.5 -3.314,0 -6,-2.9102 -6,-6.5 z"
         stroke="#2f528f"
         stroke-width="1.33333"
         stroke-miterlimit="8"
         fill="url(#fill0)"
         fill-rule="evenodd"
         id="path55"
         style="fill:url(#fill0)" />
      <path
         d="m 189.5,829 c 0,-3.59 2.686,-6.5 6,-6.5 3.314,0 6,2.91 6,6.5 0,3.59 -2.686,6.5 -6,6.5 -3.314,0 -6,-2.91 -6,-6.5 z"
         stroke="#2f528f"
         stroke-width="1.33333"
         stroke-miterlimit="8"
         fill="url(#fill1)"
         fill-rule="evenodd"
         id="path56"
         style="fill:url(#fill1)" />
      <path
         d="m 305.5,383 6.5,-8.5 6.5,8.5 -6.5,8.5 z"
         stroke="#2f528f"
         stroke-width="1.33333"
         stroke-miterlimit="8"
         fill="url(#fill2)"
         fill-rule="evenodd"
         id="path57"
         style="fill:url(#fill2)" />
      <path
         d="m 252.5,116.334 c 0,-3.774 3.06,-6.834 6.834,-6.834 h 80.333 c 3.774,0 6.833,3.06 6.833,6.834 v 27.333 c 0,3.774 -3.059,6.833 -6.833,6.833 h -80.333 c -3.774,0 -6.834,-3.059 -6.834,-6.833 z"
         stroke="#000000"
         stroke-width="0.666667"
         stroke-miterlimit="8"
         fill="url(#fill3)"
         fill-rule="evenodd"
         id="path58"
         style="fill:url(#fill3)" />
      <text
         font-family="Calibri, Calibri_MSFontService, sans-serif"
         font-weight="400"
         font-size="8px"
         transform="translate(268.638,127)"
         id="text58">User klickt auf den</text>
      <text
         font-family="Calibri, Calibri_MSFontService, sans-serif"
         font-weight="400"
         font-size="8px"
         transform="translate(278.725,137)"
         id="text59">Start</text>
      <text
         font-family="Calibri, Calibri_MSFontService, sans-serif"
         font-weight="400"
         font-size="8px"
         transform="translate(294.391,137)"
         id="text60">-</text>
      <text
         font-family="Calibri, Calibri_MSFontService, sans-serif"
         font-weight="400"
         font-size="8px"
         transform="translate(296.891,137)"
         id="text61">Button</text>
      <path
         d="m 319.5,283.334 c 0,-3.774 3.06,-6.834 6.834,-6.834 h 80.333 c 3.774,0 6.833,3.06 6.833,6.834 v 27.333 c 0,3.774 -3.059,6.833 -6.833,6.833 h -80.333 c -3.774,0 -6.834,-3.059 -6.834,-6.833 z"
         stroke="#000000"
         stroke-width="0.666667"
         stroke-miterlimit="8"
         fill="url(#fill4)"
         fill-rule="evenodd"
         id="path61"
         style="fill:url(#fill4)" />
      <text
         font-family="Calibri, Calibri_MSFontService, sans-serif"
         font-weight="400"
         font-size="8px"
         transform="translate(341.877,294)"
         id="text62">Unterbrechen</text>
      <text
         font-family="Calibri, Calibri_MSFontService, sans-serif"
         font-weight="400"
         font-size="8px"
         transform="translate(387.377,294)"
         id="text63">-</text>
      <text
         font-family="Calibri, Calibri_MSFontService, sans-serif"
         font-weight="400"
         font-size="8px"
         transform="translate(332.71,304)"
         id="text64">Button wird sichtbar</text>
      <path
         d="m 328.5,491.333 c 0,-3.774 3.059,-6.833 6.833,-6.833 h 93.334 c 3.774,0 6.833,3.059 6.833,6.833 v 27.334 c 0,3.774 -3.059,6.833 -6.833,6.833 h -93.334 c -3.774,0 -6.833,-3.059 -6.833,-6.833 z"
         stroke="#000000"
         stroke-width="0.666667"
         stroke-miterlimit="8"
         fill="url(#fill5)"
         fill-rule="evenodd"
         id="path64"
         style="fill:url(#fill5)" />
      <text
         font-family="Calibri, Calibri_MSFontService, sans-serif"
         font-weight="400"
         font-size="8px"
         transform="translate(343.63,497)"
         id="text65">Fortsetzen</text>
      <text
         font-family="Calibri, Calibri_MSFontService, sans-serif"
         font-weight="400"
         font-size="8px"
         transform="translate(378.13,497)"
         id="text66">-</text>
      <text
         font-family="Calibri, Calibri_MSFontService, sans-serif"
         font-weight="400"
         font-size="8px"
         transform="translate(380.63,497)"
         id="text67">Button wird</text>
      <text
         font-family="Calibri, Calibri_MSFontService, sans-serif"
         font-weight="400"
         font-size="8px"
         transform="translate(342.463,507)"
         id="text68">sichtbar, Unterbrechen</text>
      <text
         font-family="Calibri, Calibri_MSFontService, sans-serif"
         font-weight="400"
         font-size="8px"
         transform="translate(417.796,507)"
         id="text69">-</text>
      <text
         font-family="Calibri, Calibri_MSFontService, sans-serif"
         font-weight="400"
         font-size="8px"
         transform="translate(344.05,517)"
         id="text70">Button wird unsichtbar</text>
      <path
         d="m 338.5,422.334 c 0,-3.774 3.06,-6.834 6.834,-6.834 h 73.333 c 3.774,0 6.833,3.06 6.833,6.834 v 27.333 c 0,3.774 -3.059,6.833 -6.833,6.833 h -73.333 c -3.774,0 -6.834,-3.059 -6.834,-6.833 z"
         stroke="#000000"
         stroke-width="0.666667"
         stroke-miterlimit="8"
         fill="url(#fill6)"
         fill-rule="evenodd"
         id="path70"
         style="fill:url(#fill6)" />
      <text
         font-family="Calibri, Calibri_MSFontService, sans-serif"
         font-weight="400"
         font-size="8px"
         transform="translate(364.383,433)"
         id="text71">Ablauf der</text>
      <text
         font-family="Calibri, Calibri_MSFontService, sans-serif"
         font-weight="400"
         font-size="8px"
         transform="translate(353.13,443)"
         id="text72">Animation stoppt</text>
      <path
         d="m 209.5,282.333 c 0,-3.773 3.059,-6.833 6.833,-6.833 h 79.334 c 3.774,0 6.833,3.06 6.833,6.833 v 27.334 c 0,3.774 -3.059,6.833 -6.833,6.833 h -79.334 c -3.774,0 -6.833,-3.059 -6.833,-6.833 z"
         stroke="#000000"
         stroke-width="0.666667"
         stroke-miterlimit="8"
         fill="url(#fill7)"
         fill-rule="evenodd"
         id="path72"
         style="fill:url(#fill7)" />
      <text
         font-family="Calibri, Calibri_MSFontService, sans-serif"
         font-weight="400"
         font-size="8px"
         transform="translate(221.387,293)"
         id="text73">Abbruch</text>
      <text
         font-family="Calibri, Calibri_MSFontService, sans-serif"
         font-weight="400"
         font-size="8px"
         transform="translate(248.887,293)"
         id="text74">-</text>
      <text
         font-family="Calibri, Calibri_MSFontService, sans-serif"
         font-weight="400"
         font-size="8px"
         transform="translate(251.387,293)"
         id="text75">Button wird</text>
      <text
         font-family="Calibri, Calibri_MSFontService, sans-serif"
         font-weight="400"
         font-size="8px"
         transform="translate(242.64,303)"
         id="text76">sichtbar</text>
      <path
         d="m 299.833,82.5001 v 21.1519 h -0.666 V 82.5001 Z m 3.667,19.8179 -4,8 -4,-8 z"
         id="path76" />
      <path
         d="m 311.833,352.495 0.241,16.074 -0.667,0.01 -0.24,-16.074 z m 3.887,14.686 -3.88,8.059 -4.119,-7.94 z"
         id="path77" />
      <path
         d="M 0.333333,-1.23255e-6 0.333414,21.7262 H -0.333253 L -0.333333,1.23255e-6 Z M 4.00008,20.3928 1.04987e-4,28.3929 -3.99992,20.3929 Z"
         transform="matrix(-1,0,0,1,381.5,456.5)"
         id="path78" />
      <path
         d="M 0.333333,-1.52157e-6 0.333408,16.333 H -0.333259 L -0.333333,1.52157e-6 Z M 4.00007,14.9997 l -3.999965013,8 -4.000034987,-8 z"
         transform="matrix(-1,0,0,1,299.5,150.5)"
         id="path79" />
      <path
         d="M 0.333316,-0.00339438 0.605691,26.7429 -0.0609411,26.7497 -0.333316,0.00339438 Z M 4.25859,25.3723 0.340262,33.4126 -3.74099,25.4537 Z"
         transform="matrix(-1,0,0,1,381.84,565.5)"
         id="path80" />
      <path
         d="M 0,0 217.402,0.755486"
         stroke="#000000"
         stroke-width="4"
         stroke-miterlimit="8"
         fill="none"
         fill-rule="evenodd"
         transform="matrix(1,0,0,-1,88,658.755)"
         id="path81" />
      <path
         d="m 256.833,244.5 v 25.085 h -0.666 V 244.5 Z m 3.667,23.752 -4,8 -4,-8 z"
         id="path82" />
      <path
         d="m 363.833,244.5 v 24.988 h -0.666 V 244.5 Z m 3.667,23.655 -4,8 -4,-8 z"
         id="path83" />
      <path
         d="m 189.5,762 6.5,-8.5 6.5,8.5 -6.5,8.5 z"
         stroke="#2f528f"
         stroke-width="1.33333"
         stroke-miterlimit="8"
         fill="url(#fill8)"
         fill-rule="evenodd"
         id="path84"
         style="fill:url(#fill8)" />
      <path
         d="m 195.833,770.5 v 41.974 h -0.666 V 770.5 Z m 3.667,40.64 -4,8 -4,-8 z"
         id="path85" />
      <path
         d="m 195.833,729.5 v 17.771 h -0.666 V 729.5 Z m 3.667,16.438 -4,8 -4,-8 z"
         id="path86" />
      <path
         d="m 138.833,351.5 v 178.572 h -0.666 V 351.5 Z m 3.667,177.239 -4,8 -4,-8 z"
         id="path87" />
      <path
         d="m 186.5,829 c 0,-5.247 4.029,-9.5 9,-9.5 4.971,0 9,4.253 9,9.5 0,5.247 -4.029,9.5 -9,9.5 -4.971,0 -9,-4.253 -9,-9.5 z"
         stroke="#2f528f"
         stroke-width="1.33333"
         stroke-miterlimit="8"
         fill="none"
         fill-rule="evenodd"
         id="path88" />
      <path
         d="M 0,-0.333333 H 49.3175 V 146.513 H 48.6508 V 0 l 0.3333,0.333333 H 0 Z M 52.9841,145.18 l -4,8 -4,-8 z"
         transform="matrix(-1,0,0,1,305.484,383.5)"
         id="path89" />
      <path
         d="m 435.146,619.355 h 37.017 l -0.333,0.333 v -403.39 l 0.333,0.333 H 381.5 l 0.333,-0.333 v 20.535 h -0.666 v -20.868 h 91.329 v 404.056 h -37.35 z M 385.5,235.5 l -4,8 -4,-8 z"
         id="path90" />
      <text
         font-family="Calibri, Calibri_MSFontService, sans-serif"
         font-weight="400"
         font-size="8px"
         transform="translate(328.8,375)"
         id="text90">[User klickt auf Unterbrechen</text>
      <text
         font-family="Calibri, Calibri_MSFontService, sans-serif"
         font-weight="400"
         font-size="8px"
         transform="translate(424.966,375)"
         id="text91">-</text>
      <text
         font-family="Calibri, Calibri_MSFontService, sans-serif"
         font-weight="400"
         font-size="8px"
         transform="translate(427.466,375)"
         id="text92">Button]</text>
      <text
         font-family="Calibri, Calibri_MSFontService, sans-serif"
         font-weight="400"
         font-size="8px"
         transform="translate(208.69,751)"
         id="text93">[User klickt auf Neustart</text>
      <text
         font-family="Calibri, Calibri_MSFontService, sans-serif"
         font-weight="400"
         font-size="8px"
         transform="translate(287.857,751)"
         id="text94">-</text>
      <text
         font-family="Calibri, Calibri_MSFontService, sans-serif"
         font-weight="400"
         font-size="8px"
         transform="translate(290.357,751)"
         id="text95">Button]</text>
      <text
         font-family="Calibri, Calibri_MSFontService, sans-serif"
         font-weight="400"
         font-size="8px"
         transform="translate(164.443,781)"
         id="text96">[User</text>
      <text
         font-family="Calibri, Calibri_MSFontService, sans-serif"
         font-weight="400"
         font-size="8px"
         transform="translate(164.443,791)"
         id="text97">macht</text>
      <text
         font-family="Calibri, Calibri_MSFontService, sans-serif"
         font-weight="400"
         font-size="8px"
         transform="translate(164.443,801)"
         id="text98">nichts]</text>
      <path
         d="m 252.5,180.5 c 0,-3.866 3.134,-7 7,-7 h 79 c 3.866,0 7,3.134 7,7 v 28 c 0,3.866 -3.134,7 -7,7 h -79 c -3.866,0 -7,-3.134 -7,-7 z"
         stroke="#000000"
         stroke-width="0.666667"
         stroke-miterlimit="8"
         fill="url(#fill9)"
         fill-rule="evenodd"
         id="path98"
         style="fill:url(#fill9)" />
      <text
         font-family="Calibri, Calibri_MSFontService, sans-serif"
         font-weight="400"
         font-size="8px"
         transform="translate(265.638,191)"
         id="text99">Animation läuft vom</text>
      <text
         font-family="Calibri, Calibri_MSFontService, sans-serif"
         font-weight="400"
         font-size="8px"
         transform="translate(278.471,201)"
         id="text100">Start weg ab</text>
      <path
         d="m 299.833,215.5 v 21.726 h -0.666 V 215.5 Z m 3.667,20.393 -4,8 -4,-8 z"
         id="path100" />
      <path
         d="M 0,0 202.304,1.50877"
         stroke="#000000"
         stroke-width="4"
         stroke-miterlimit="8"
         fill="none"
         fill-rule="evenodd"
         transform="matrix(1,0,0,-1,210,244.509)"
         id="path101" />
      <path
         d="m 366.833,317.5 v 24.897 h -0.666 V 317.5 Z m 3.667,23.564 -4,8 -4,-8 z"
         id="path102" />
      <path
         d="m 256.833,316.496 0.327,25.931 -0.666,0.008 -0.327,-25.931 z m 3.977,24.551 -3.899,8.05 -4.1,-7.949 z"
         id="path103" />
      <path
         d="M 0,0 329.582,1.82929"
         stroke="#000000"
         stroke-width="4"
         stroke-miterlimit="8"
         fill="none"
         fill-rule="evenodd"
         transform="matrix(1,0,0,-1,83,351.829)"
         id="path104" />
      <path
         d="m 318.5,383.167 h 63.675 v 25.725 h -0.666 V 383.5 l 0.333,0.333 H 318.5 Z m 67.342,24.392 -4,8 -4,-8 z"
         id="path105" />
      <text
         font-family="Calibri, Calibri_MSFontService, sans-serif"
         font-weight="400"
         font-size="8px"
         transform="translate(318.12,540)"
         id="text105">[User klickt auf</text>
      <text
         font-family="Calibri, Calibri_MSFontService, sans-serif"
         font-weight="400"
         font-size="8px"
         transform="translate(318.12,550)"
         id="text106">Abbruch</text>
      <text
         font-family="Calibri, Calibri_MSFontService, sans-serif"
         font-weight="400"
         font-size="8px"
         transform="translate(345.62,550)"
         id="text107">-</text>
      <text
         font-family="Calibri, Calibri_MSFontService, sans-serif"
         font-weight="400"
         font-size="8px"
         transform="translate(348.12,550)"
         id="text108">Button]</text>
      <path
         d="m 375.5,557 6.5,-8.5 6.5,8.5 -6.5,8.5 z"
         stroke="#2f528f"
         stroke-width="1.33333"
         stroke-miterlimit="8"
         fill="url(#fill10)"
         fill-rule="evenodd"
         id="path108"
         style="fill:url(#fill10)" />
      <path
         d="m 381.833,525.495 0.241,16.074 -0.667,0.01 -0.24,-16.074 z m 3.887,14.686 -3.88,8.059 -4.119,-7.94 z"
         id="path109" />
      <text
         font-family="Calibri, Calibri_MSFontService, sans-serif"
         font-weight="400"
         font-size="8px"
         transform="translate(387.8,574)"
         id="text109">[User klickt auf</text>
      <text
         font-family="Calibri, Calibri_MSFontService, sans-serif"
         font-weight="400"
         font-size="8px"
         transform="translate(387.8,584)"
         id="text110">Fortsetzen</text>
      <text
         font-family="Calibri, Calibri_MSFontService, sans-serif"
         font-weight="400"
         font-size="8px"
         transform="translate(422.3,584)"
         id="text111">-</text>
      <text
         font-family="Calibri, Calibri_MSFontService, sans-serif"
         font-weight="400"
         font-size="8px"
         transform="translate(424.8,584)"
         id="text112">Button]</text>
      <path
         d="m 328.5,606.333 c 0,-3.773 3.059,-6.833 6.833,-6.833 h 93.334 c 3.774,0 6.833,3.06 6.833,6.833 v 27.334 c 0,3.774 -3.059,6.833 -6.833,6.833 h -93.334 c -3.774,0 -6.833,-3.059 -6.833,-6.833 z"
         stroke="#000000"
         stroke-width="0.666667"
         stroke-miterlimit="8"
         fill="url(#fill11)"
         fill-rule="evenodd"
         id="path112"
         style="fill:url(#fill11)" />
      <text
         font-family="Calibri, Calibri_MSFontService, sans-serif"
         font-weight="400"
         font-size="8px"
         transform="translate(346.63,617)"
         id="text113">Ablauf der Animation</text>
      <text
         font-family="Calibri, Calibri_MSFontService, sans-serif"
         font-weight="400"
         font-size="8px"
         transform="translate(366.55,627)"
         id="text114">setzt fort</text>
      <path
         d="m 375.528,557.93 h -36.847 v -0.43 l 0.333,0.333 h -29.847 v -0.666 h 30.181 v 0.43 l -0.334,-0.334 h 36.514 z m -65.028,3.57 -8,-4 8,-4 z"
         id="path114" />
      <path
         d="m 210.5,543.334 c 0,-3.774 3.06,-6.834 6.834,-6.834 h 78.333 c 3.774,0 6.833,3.06 6.833,6.834 v 27.333 c 0,3.774 -3.059,6.833 -6.833,6.833 h -78.333 c -3.774,0 -6.834,-3.059 -6.834,-6.833 z"
         stroke="#000000"
         stroke-width="0.666667"
         stroke-miterlimit="8"
         fill="url(#fill12)"
         fill-rule="evenodd"
         id="path115"
         style="fill:url(#fill12)" />
      <text
         font-family="Calibri, Calibri_MSFontService, sans-serif"
         font-weight="400"
         font-size="8px"
         transform="translate(228.032,549)"
         id="text115">letzter Frame der</text>
      <text
         font-family="Calibri, Calibri_MSFontService, sans-serif"
         font-weight="400"
         font-size="8px"
         transform="translate(231.279,559)"
         id="text116">Animation wird</text>
      <text
         font-family="Calibri, Calibri_MSFontService, sans-serif"
         font-weight="400"
         font-size="8px"
         transform="translate(243.279,569)"
         id="text117">sichtbar</text>
      <path
         d="m 92.5001,543.334 c 0,-3.774 3.0594,-6.834 6.8334,-6.834 h 78.3335 c 3.774,0 6.833,3.06 6.833,6.834 v 27.333 c 0,3.774 -3.059,6.833 -6.833,6.833 H 99.3335 c -3.774,0 -6.8334,-3.059 -6.8334,-6.833 z"
         stroke="#000000"
         stroke-width="0.666667"
         stroke-miterlimit="8"
         fill="url(#fill13)"
         fill-rule="evenodd"
         id="path117"
         style="fill:url(#fill13)" />
      <text
         font-family="Calibri, Calibri_MSFontService, sans-serif"
         font-weight="400"
         font-size="8px"
         transform="translate(107.355,554)"
         id="text118">Animation läuft bis</text>
      <text
         font-family="Calibri, Calibri_MSFontService, sans-serif"
         font-weight="400"
         font-size="8px"
         transform="translate(122.269,564)"
         id="text119">zum Ende</text>
      <path
         d="m 138.833,577.5 v 73.985 h -0.666 V 577.5 Z m 3.667,72.652 -4,8 -4,-8 z"
         id="path119" />
      <path
         d="M 0.333328,-0.00192497 0.760026,73.8849 0.09337,73.8887 -0.333328,0.00192497 Z M 4.41893,72.5303 0.465197,80.5533 -3.58094,72.5765 Z"
         transform="matrix(-1,0,0,1,256.965,577.5)"
         id="path120" />
      <path
         d="M 0.333325,-0.00235239 0.491422,22.3994 -0.175228,22.4041 -0.333325,0.00235239 Z M 4.14859,21.0402 0.205144,29.0682 -3.85121,21.0967 Z"
         transform="matrix(-1,0,0,1,195.705,658.5)"
         id="path121" />
      <path
         d="m 118.5,695.334 c 0,-3.774 3.06,-6.834 6.834,-6.834 h 140.333 c 3.774,0 6.833,3.06 6.833,6.834 v 27.333 c 0,3.774 -3.059,6.833 -6.833,6.833 H 125.334 c -3.774,0 -6.834,-3.059 -6.834,-6.833 z"
         stroke="#000000"
         stroke-width="0.666667"
         stroke-miterlimit="8"
         fill="url(#fill14)"
         fill-rule="evenodd"
         id="path122"
         style="fill:url(#fill14)" />
      <text
         font-family="Calibri, Calibri_MSFontService, sans-serif"
         font-weight="400"
         font-size="8px"
         transform="translate(145.588,701)"
         id="text122">Neustart</text>
      <text
         font-family="Calibri, Calibri_MSFontService, sans-serif"
         font-weight="400"
         font-size="8px"
         transform="translate(174.088,701)"
         id="text123">-</text>
      <text
         font-family="Calibri, Calibri_MSFontService, sans-serif"
         font-weight="400"
         font-size="8px"
         transform="translate(176.588,701)"
         id="text124">Button wird sichtbar,</text>
      <text
         font-family="Calibri, Calibri_MSFontService, sans-serif"
         font-weight="400"
         font-size="8px"
         transform="translate(137.088,711)"
         id="text125">Abbruch</text>
      <text
         font-family="Calibri, Calibri_MSFontService, sans-serif"
         font-weight="400"
         font-size="8px"
         transform="translate(164.588,711)"
         id="text126">-</text>
      <text
         font-family="Calibri, Calibri_MSFontService, sans-serif"
         font-weight="400"
         font-size="8px"
         transform="translate(167.088,711)"
         id="text127">Button und Unterbrechen</text>
      <text
         font-family="Calibri, Calibri_MSFontService, sans-serif"
         font-weight="400"
         font-size="8px"
         transform="translate(250.922,711)"
         id="text128">-</text>
      <text
         font-family="Calibri, Calibri_MSFontService, sans-serif"
         font-weight="400"
         font-size="8px"
         transform="translate(152.755,721)"
         id="text129">Button werden unsichtbar</text>
      <path
         d="M 0,-0.333333 H 313.664 V 567.876 h -163.13 v -0.666 h 162.797 l -0.334,0.333 V 0 l 0.334,0.333333 H 0 Z M 151.867,571.543 l -8,-4 8,-4 z"
         transform="matrix(1,0,0,-1,202.5,762.043)"
         id="path129" />
      <text
         font-family="Calibri, Calibri_MSFontService, sans-serif"
         font-weight="400"
         font-size="8px"
         transform="translate(191.282,375)"
         id="text130">[User klickt auf</text>
      <text
         font-family="Calibri, Calibri_MSFontService, sans-serif"
         font-weight="400"
         font-size="8px"
         transform="translate(241.949,375)"
         id="text131">Abbruch</text>
      <text
         font-family="Calibri, Calibri_MSFontService, sans-serif"
         font-weight="400"
         font-size="8px"
         transform="translate(269.449,375)"
         id="text132">-</text>
      <text
         font-family="Calibri, Calibri_MSFontService, sans-serif"
         font-weight="400"
         font-size="8px"
         transform="translate(271.949,375)"
         id="text133">Button</text>
      <text
         font-family="Calibri, Calibri_MSFontService, sans-serif"
         font-weight="400"
         font-size="8px"
         transform="translate(294.115,375)"
         id="text134">]</text>
    </g>
  </g>
</svg>
