<?xml version="1.0" encoding="utf-8"?>
<!-- Generator: Adobe Illustrator 28.3.0, SVG Export Plug-In . SVG Version: 6.00 Build 0)  -->
<svg version="1.1" id="Ebene_1" xmlns="http://www.w3.org/2000/svg" xmlns:xlink="http://www.w3.org/1999/xlink" x="0px" y="0px"
	 viewBox="0 0 178.53 158.13" style="enable-background:new 0 0 178.53 158.13;" xml:space="preserve">
<style type="text/css">
	.st0{fill:#EAEAEA;}
	.st1{fill:#121110;}
	.st2{fill:url(#SVGID_1_);}
	.st3{fill:#8B9BA3;}
	.st4{fill:#A7B2B7;}
	.st5{fill:#B8B8B6;}
	.st6{fill:#D2D2D2;}
	.st7{fill:#831218;}
	.st8{fill:url(#SVGID_00000060025160071577927830000000067930555054068892_);}
	.st9{fill:#291915;}
	.st10{fill:url(#SVGID_00000077324905439358171690000011765992267286474902_);stroke:#000000;stroke-miterlimit:10;}
</style>
<g>
	<g>
		<path class="st0" d="M170.35,21.69c0.01,0.15-0.01,0.3,0,0.45c-0.04-0.04-0.11,0.09-0.12,0.09c-0.22-0.22-1.75-1.79-1.79-1.92
			c-0.05-0.18,0.08-1.19,0.16-1.47c0.09,0.03,1.46,1.28,1.51,1.38C170.14,20.29,170.34,21.52,170.35,21.69z"/>
		<g>
			<path class="st1" d="M158.84,22.85c-0.36,0.64-2.27,2.87-3.25,4.68c-0.33,0.61-1.72,3.66-1.67,4.15
				c-0.28,0.06-0.44-0.1-0.56-0.09c0.85-3.31,2.5-5.85,4.52-8.38c0.39-0.49,0.81-0.93,1.19-1.43
				C159.07,21.86,159.37,21.91,158.84,22.85z"/>
			<linearGradient id="SVGID_1_" gradientUnits="userSpaceOnUse" x1="153.9726" y1="33.8515" x2="151.7167" y2="34.3949">
				<stop  offset="0" style="stop-color:#C4C9CC"/>
				<stop  offset="1" style="stop-color:#899BA3"/>
			</linearGradient>
			<path class="st2" d="M153.92,31.68c0.02,0.24,2.09,2.62,0.2,4.28c-2.03,1.77-4.51-1.18-2.26-3.75c0.4-0.24,1.07-0.59,1.51-0.62
				C153.48,31.58,153.64,31.74,153.92,31.68z"/>
		</g>
		<g>
			<path class="st3" d="M161.54,0.73c0.75,1.8,1.11,3,1.11,5.04c0,2.13-0.27,1.32-0.79,2.01c-0.8,1.04-0.58,2.34,0.4,2.59
				c-0.01,0.33,0.02,1.46,0.08,1.56c0.05,0.07,0.57-0.11,0.63,0.22c-0.83-0.2-0.76,0.57-1.35,1.11c0.13,0.26,1.06,0.66,1.11,0.8
				c0.08,0.24-0.23,2.13,0.79,3.17c-0.07,0.63-0.4,1.19-0.08,1.83c0.42,0.83,2.76,0.21,3.65,0.49c0.4,0.13,1.73,0.77,0.56,0.62
				c-0.92-0.12-1.34-0.17-2.3-0.18c-1.34-0.02-2.75-0.18-3.97,0.58c0.55,3.27,0.38,6.61,0.63,9.9c0.11,1.42,0.58,3.56,0.71,5.08
				c0.14,1.52,0.06,3.83,0.16,4.91c0.04,0.44,0.51,0.82,0.2,1.29c-0.09-0.38-1.2-0.29-1.31,0.04c0,1.01-0.06,4.63,0.32,5.26
				c0.31,0.52,0.61-0.45,0.4,1.96c-1.39-0.8-2.63-1.01-4.13-0.49c0.43-8.56,0.79-17.11,0.48-25.69c0.53-0.94,0.22-0.99,0.24-1.07
				c0.26-1.58,0.33-2.01,2.22-2.9C154.55,15.17,155.22,3.46,161.54,0.73z"/>
			<path class="st4" d="M166.46,13.93c-1.33,0.25-2.66,0.03-3.81-0.76c-0.04-0.29,0.35-0.86,0.32-1.03
				c-0.06-0.33-0.59-0.15-0.63-0.22c-0.06-0.1-0.09-1.23-0.08-1.56c2.08,0.52,1.97-3.76-0.4-2.59c0.53-0.69,0.79,0.13,0.79-2.01
				c0-2.04-0.36-3.24-1.11-5.04c0.27-0.11,0.57-0.4,0.91-0.36c3.23,2.4,3.6,6.64,3.61,10.66C166.26,12.48,166.26,12.48,166.46,13.93
				z"/>
			<path class="st0" d="M173.68,8.31c-0.2,1.51-1.23,2.17-2.3,2.94c-0.57,0.41-0.46-1.45-1.9-2.14c0.02-0.46-0.1-1-0.48-1.25
				c0.16-2.89-0.3-7.04-3.37-7.67c0.06-0.09,0.06-0.09,0.12-0.18C169.85,0.16,173.34,3.66,173.68,8.31z"/>
			<path class="st0" d="M171.38,11.26c1.07-0.77,2.1-1.44,2.3-2.94c0.2,2.78-0.38,5.64-2.02,7.76c-0.47,0.03-0.03-1.11-0.04-2.19
				c-0.01-1.11-0.24-1.52-0.24-1.61C171.37,11.85,171.76,11.55,171.38,11.26z"/>
			<path class="st0" d="M165.75,0.02c-0.06,0.09-0.06,0.09-0.12,0.18c3.08,0.63,3.53,4.78,3.37,7.67c-0.36-0.23-0.56-0.19-0.95-0.18
				c0.11-0.07,0.06-0.47,0.87-0.13c-0.38-1.79-0.52-2.85-1.43-4.46C165.78,0.06,163.39-0.07,165.75,0.02z"/>
			<path class="st4" d="M166.06,17.77c0.58,0.27,1.4,0.75,1.19,1.61c-0.05,0.03-0.19-0.07-0.16,0.18c-0.89-0.28-3.23,0.34-3.65-0.49
				c-0.32-0.63,0.01-1.2,0.08-1.83C164.15,17.87,165.26,18.03,166.06,17.77z"/>
			<path class="st1" d="M169,7.87c0.37,0.24,0.5,0.79,0.48,1.25c-0.13,2.76-3.96,0.31-1.43-1.43C168.44,7.68,168.64,7.63,169,7.87z"
				/>
			<path class="st1" d="M162.25,10.36c-0.98-0.24-1.2-1.54-0.4-2.59C164.22,6.61,164.33,10.88,162.25,10.36z"/>
			<g>
				<path class="st1" d="M166.06,17.77c-0.8,0.27-1.91,0.11-2.54-0.54c-1.02-1.04-0.71-2.93-0.79-3.17
					c-0.05-0.15-0.98-0.54-1.11-0.8c0.58-0.54,0.52-1.32,1.35-1.11c0.03,0.17-0.35,0.74-0.32,1.03c1.15,0.78,2.48,1.01,3.81,0.76
					c0.19-0.04,1.8-0.64,1.87-0.71c0.36-0.4-0.24-1.53,0.52-1.2c-0.12,1.62,0.4,0.28,0.71,1.34c-1.91,0.78-1.04,0.73-1.43,1.96
					C167.81,16.33,167.02,17.45,166.06,17.77z"/>
				<path class="st5" d="M167.53,14.29c-0.05,3.45-4.28,4.01-4.13,0.18C164.84,14.88,166.13,14.91,167.53,14.29z"/>
			</g>
		</g>
		<g>
			<path class="st1" d="M171.62,22.49c2.29,2.05,3.56,6.18,4.21,9.28c0.08,0.39,0.19,0.77,0.24,1.16c-0.05,0.01-0.53,0.07-0.56,0.09
				c-0.26-1.86-0.76-3.63-1.43-5.35c-1.14-2.92-1.68-3.49-3.73-5.53c-0.01-0.15,0.01-0.3,0-0.45
				C170.82,21.85,171.24,22.15,171.62,22.49z"/>
			<g>
				<path class="st3" d="M177.33,33.2c-1.19-0.22-1.16,1.56-0.48,2.23c-0.25,0.79,0.12,1.33,0.56,1.87
					c-1.83,0.94-2.91-1.19-2.62-2.99c0.05-0.32,0.65-1.26,0.71-1.29c0.02-0.02,0.5-0.08,0.56-0.09
					C176.68,32.87,176.82,32.96,177.33,33.2z"/>
				<path class="st0" d="M177.33,33.2c1.07,0.49,1.52,1.68,0.95,2.32c-0.39,0.44-1.04,0.29-1.43-0.09
					C176.17,34.76,176.14,32.98,177.33,33.2z"/>
				<path class="st6" d="M178.29,35.52c0.45,0.05-0.44,1.56-0.87,1.78c-0.43-0.55-0.81-1.09-0.56-1.87
					C177.25,35.81,177.9,35.95,178.29,35.52z"/>
			</g>
		</g>
		<g>
			<g>
				<path class="st6" d="M168.6,18.84c-0.08,0.28-0.21,1.3-0.16,1.47c0.04,0.13,1.57,1.7,1.79,1.92c0.01,0.01,0.08-0.13,0.12-0.09
					c2.05,2.04,2.59,2.61,3.73,5.53c-0.25,0.04-0.24,1.1-0.36,1.25c-0.05,0.07-1.3,0.51-1.51,0.62c-0.1-0.07-0.1-0.07-0.2-0.13
					c0.58-2.7-1.07-0.82-1.23-2.9c-0.9-0.08-0.43,0.43-0.44,0.49c-0.01,0.07-0.15,0.02-0.16,0.09c-0.09,0.87,0.02,10.17,0.08,11.86
					c0.12,3.4,0.5,6.82,0.67,10.21c-0.19-0.1-0.3-0.14-0.52-0.18c-0.34-0.06-0.59-0.16-0.95-0.18c0.1-0.15,0.24-0.46,0.24-0.49
					c0.1-1.14-0.52-6.17-0.63-7.94c-0.22-3.5-0.24-7.03-0.48-10.53c-0.11-1.7-0.41-6.42-0.56-7.49c-0.11-0.85-0.55-1.41-0.4-2.19
					c1.17,0.15-0.15-0.5-0.56-0.62c-0.03-0.25,0.11-0.15,0.16-0.18C167.5,19.24,168.39,18.76,168.6,18.84z"/>
				<path class="st4" d="M165.35,20c-0.12,0.5,0.16,0.97,0.24,1.47c0.07,0.49,0.08,1.2,0.16,1.69c0.02,0.11,0.29,0.52,0.32,0.71
					c0.1,0.61,0.08,1.65,0.16,2.23c0.66,4.66,1.13,9.3,1.59,14c0.05,0.46-0.18,0.79,0.16,1.03c-0.08,0.01-1.42,0.38-1.47,0.45
					c-0.11,0.14,0.05,0.51-0.12,0.54c-0.21-0.87-0.22-0.25-0.71-0.27c-0.72-0.03-1.26-0.08-1.98,0c-0.02,0-0.28-0.18-0.44-0.09
					c-0.3,0.16-0.5,6.58-0.6,7.45c-0.11,0.22-2.08-1.46-4.29-0.49c0-0.06,0-0.12,0-0.18c1.5-0.52,2.74-0.31,4.13,0.49
					c0.21-2.41-0.09-1.44-0.4-1.96c-0.37-0.64-0.32-4.26-0.32-5.26c0.11-0.33,1.22-0.43,1.31-0.04c0.32-0.48-0.16-0.86-0.2-1.29
					c-0.1-1.08-0.02-3.39-0.16-4.91c-0.14-1.53-0.6-3.67-0.71-5.08c-0.26-3.3-0.09-6.63-0.63-9.9
					C162.59,19.81,164.01,19.98,165.35,20z"/>
				<path class="st6" d="M167.65,20.17c-0.16,0.77,0.28,1.33,0.4,2.19c0.14,1.07,0.44,5.8,0.56,7.49c0.23,3.5,0.25,7.03,0.48,10.53
					c0.11,1.77,0.73,6.8,0.63,7.94c0,0.03-0.14,0.34-0.24,0.49c-0.23-0.01-0.48-0.01-0.71,0c-0.24-3.86-0.24-3.86-0.48-7.72
					c-0.14-0.14-0.24,0.03-0.32,0.04c-0.34-0.24-0.11-0.57-0.16-1.03c-0.46-4.7-0.93-9.34-1.59-14c-0.08-0.58-0.06-1.62-0.16-2.23
					c-0.03-0.19-0.3-0.61-0.32-0.71c-0.08-0.5-0.08-1.21-0.16-1.69c-0.08-0.5-0.35-0.97-0.24-1.47
					C166.31,20.01,166.73,20.06,167.65,20.17z"/>
			</g>
			<g>
				<path class="st7" d="M166.38,42.12c0.21,0.86,0.29,5.56,0.4,7.09c0.15,0.51,0.38-0.3,1.98-0.4c0.23-0.01,0.48-0.01,0.71,0
					c0.37,0.02,0.61,0.12,0.95,0.18c0.75,0.31,0.96,1.4,0.63,1.16c-2.9-1.91-5.54,2.02-3.29,3.75c1.26,0.96,3.51,0.56,4.33-0.89
					c0.01-0.02,0.17-0.14,0.16-0.36c0,0.05,0.17,0.65,0.08,1.07c-0.26,1.28-1.89,2.02-2.94,2.05c-0.61,0.02-0.86-0.02-1.43-0.27
					c-0.62-0.27-0.91-0.73-1.35-1.25c-0.37-0.91-0.42-1.87-0.48-2.85c-0.02-0.38,0.02-0.78,0-1.16c-0.15-2.8-0.2-5.6-0.48-8.38
					C166.16,41.87,166.17,41.25,166.38,42.12z"/>
				
					<linearGradient id="SVGID_00000145759843237707623520000004049269376992927141_" gradientUnits="userSpaceOnUse" x1="170.2852" y1="51.2085" x2="168.7302" y2="53.2245">
					<stop  offset="0" style="stop-color:#C2C6C7"/>
					<stop  offset="1" style="stop-color:#7E8D94"/>
				</linearGradient>
				<path style="fill:url(#SVGID_00000145759843237707623520000004049269376992927141_);" d="M171.06,50.14
					c-0.25,0.4,0.73,0.92,0.87,1.47c0.12,0.48-0.15,0.98,0.16,1.38c-0.82,1.46-3.07,1.86-4.33,0.89
					C165.52,52.17,168.17,48.24,171.06,50.14z"/>
			</g>
			<path class="st3" d="M168.76,48.81c-1.61,0.1-1.84,0.91-1.98,0.4c-0.11-1.54-0.19-6.23-0.4-7.09c0.17-0.03,0.01-0.4,0.12-0.54
				c0.05-0.06,1.39-0.43,1.47-0.45c0.08-0.01,0.18-0.18,0.32-0.04C168.52,44.95,168.52,44.95,168.76,48.81z"/>
			<g>
				<path class="st7" d="M163.68,41.85c-0.27,2.49-0.29,5-0.48,7.49c-0.03,0.43,0.01,1.78,0,1.87c0,0.03-0.12,0.39-0.16,0.54
					c-0.04,0.15-0.74,1.78-0.79,1.87c-0.18,0.29-0.55,0.72-0.79,0.89c-1.01,0.71-2.78,0.99-3.81,0.27c-0.5-0.36-1.12-1.57-0.79-2.23
					c0.64,1.57,3.61,1.89,4.76,0.18c1.04-1.54,0-3.05-1.51-3.3c-0.94-0.16-1.66,0.1-1.75,0.09c-0.08-0.13-0.08-0.2-0.08-0.36
					c0-0.36,0.08-0.4,0.08-0.45c2.21-0.97,4.18,0.71,4.29,0.49c0.1-0.87,0.29-7.29,0.6-7.45C163.41,41.67,163.66,41.85,163.68,41.85
					z"/>
				<path class="st9" d="M162.65,53.36c-0.21,0.22-0.42,0.44-0.4,0.27c0.06-0.09,0.76-1.73,0.79-1.87
					C163.26,52.6,163.15,52.83,162.65,53.36z"/>
				<g>
					<path class="st6" d="M158.36,49.52c0.09,0.01,0.8-0.24,1.75-0.09c0.73,0.55,1.8,0.45,0.71,1.69c-0.18-0.79-1.43-0.74-1.87-1.34
						c-0.35,0.43-0.82,0.09-0.87,0.09c-0.04,0-0.4,0.53-0.52,0c0.02-0.05,0.01-0.43-0.08-0.45c0.12,0,0.06-0.18,0.12-0.18
						C157.65,49.25,158.12,49.5,158.36,49.52z"/>
					<path class="st3" d="M160.35,51.57c-0.08,0.28,0.24,0.31,0.63,0.67c0.07,0.06-0.1,0.33,0.63,0.49
						c-1.15,1.71-4.12,1.39-4.76-0.18c-0.01-0.02-0.07-0.24-0.08-0.27c0.87,1.25,1.64,1.5,3.06,1.43c1.88-0.68,1.16-0.48-0.32-1.34
						c0.43-1.05,0.03-0.44-0.67-0.54c-0.6-0.08-1.38-0.43-2.02-0.36c0.02-0.13,0.02-0.13,0.04-0.27c0.16-0.22,0.16-0.22,0.32-0.45
						c0.69,0.22,1.59,0.24,2.26,0.45C159.73,51.3,159.77,51.87,160.35,51.57z"/>
					<path class="st5" d="M160.82,51.13c-0.08,0.09-0.43,0.42-0.48,0.45c-0.58,0.3-0.62-0.27-0.91-0.36
						c-0.67-0.2-1.57-0.23-2.26-0.45c-0.47-0.02,0.35-0.78,0.4-0.89c0.12,0.53,0.48,0,0.52,0c0.05,0,0.53,0.34,0.87-0.09
						C159.4,50.39,160.64,50.33,160.82,51.13z"/>
					<path class="st6" d="M161.62,52.73c-0.74-0.16-0.57-0.43-0.63-0.49c-0.4-0.36-0.72-0.39-0.63-0.67
						c0.05-0.02,0.4-0.35,0.48-0.45c1.09-1.25,0.02-1.15-0.71-1.69C161.62,49.68,162.66,51.19,161.62,52.73z"/>
					<path class="st3" d="M158.84,51.84c0.71,0.1,1.11-0.51,0.67,0.54c1.48,0.85,2.19,0.65,0.32,1.34
						c-1.41,0.07-2.19-0.17-3.06-1.43c-0.03-0.15,0.02-0.37,0-0.54c0.01,0-0.03-0.17,0.04-0.18c0.08,0,1.38,0.23,1.67,0.27
						C158.52,51.84,158.51,52.23,158.84,51.84z"/>
				</g>
			</g>
		</g>
	</g>
</g>
<linearGradient id="SVGID_00000174586885189352824270000000683394384006191756_" gradientUnits="userSpaceOnUse" x1="0.5" y1="103.5762" x2="148.8103" y2="103.5762">
	<stop  offset="0" style="stop-color:#FFFFFF"/>
	<stop  offset="1" style="stop-color:#1D1D1B"/>
</linearGradient>
<path style="fill:url(#SVGID_00000174586885189352824270000000683394384006191756_);stroke:#000000;stroke-miterlimit:10;" d="
	M19.73,49.52C12.29,60.53,6.53,72.45,2.64,84.84c-1.66,5.28-3.07,10.84-1.39,16.12c2.02,6.32,8.17,11.14,14.75,14.06
	c16.24,7.21,35.54,5.24,53.36,2.24c4.72-0.79,9.55-1.69,13.56-4.06c5.89-3.47,15.1-5.33,18-11.08c2.96-5.85,5.46-11.99-3.48-22.62
	c-4.15-4.94-11.35-7.35-18.4-8.43c-5.58-0.85-12.19-1.39-16.04,2.31c-2.74,2.64-3.07,6.74-1.85,10.18c1.22,3.44,3.73,6.37,6.19,9.22
	l19.34,22.38c3.79,4.39,3.83,11.37,0.05,15.78c-7.52,8.8-15.93,16.99-25.09,24.44c-8.52,6.93-19.62-3.5-15.06-14.15
	c0.47-1.11,0.97-2.2,1.49-3.27c5.35-11.06,12.89-21.63,23.86-28.62s25.82-9.88,38.26-5.25c3.34,1.24,6.88,3.02,10.35,2.1
	c1.57-0.42,2.89-1.36,4.13-2.31c9.25-7.05,16.7-15.98,21.63-25.91c2.36-4.76,3.99-10.73,0.4-14.82c-4.27-4.86-13.69-3.4-17.88,1.52
	c-4.19,4.92-4.27,11.72-3,17.8c3.12,14.9,12.98,27.87,22.61,40.34"/>
</svg>
