<?xml version="1.0" encoding="UTF-8" standalone="no"?>
<!DOCTYPE svg PUBLIC "-//W3C//DTD SVG 1.1//EN" "http://www.w3.org/Graphics/SVG/1.1/DTD/svg11.dtd">
<!-- Created with Vectornator (http://vectornator.io/) -->
<svg height="100%" stroke-miterlimit="10" style="fill-rule:nonzero;clip-rule:evenodd;stroke-linecap:round;stroke-linejoin:round;" version="1.1" viewBox="0 0 844 390" width="100%" xml:space="preserve" xmlns="http://www.w3.org/2000/svg" xmlns:vectornator="http://vectornator.io" xmlns:xlink="http://www.w3.org/1999/xlink">
<defs/>
<g id="Ebene-1" vectornator:layerName="Ebene 1">
<g opacity="1" vectornator:layerName="Gruppieren 2">
<path d="M141.518 30.2429L666.572 30.2429L666.572 365.96L141.518 365.96L141.518 30.2429Z" fill="#5e711c" fill-opacity="0.226867" fill-rule="nonzero" opacity="1" stroke="#000000" stroke-linecap="butt" stroke-linejoin="round" stroke-width="2.55471" vectornator:layerName="Rechteck 1"/>
</g>
<g opacity="1" vectornator:layerName="Gruppieren 1">
<path d="M54.9415 165.014C54.9415 156.722 61.6633 150 69.9551 150C78.2469 150 84.9688 156.722 84.9688 165.014C84.9688 173.305 78.2469 180.027 69.9551 180.027C61.6633 180.027 54.9415 173.305 54.9415 165.014Z" fill="#5e711c" fill-rule="nonzero" opacity="1" stroke="#000000" stroke-linecap="butt" stroke-linejoin="round" stroke-width="2.55471" vectornator:layerName="Oval 1"/>
<path d="M69.9551 180.027L69.9551 212.403" fill="none" opacity="1" stroke="#000000" stroke-linecap="butt" stroke-linejoin="round" stroke-width="2.55471" vectornator:layerName="Linie 1"/>
<path d="M69.9551 212.403L50.2892 240" fill="none" opacity="1" stroke="#000000" stroke-linecap="butt" stroke-linejoin="round" stroke-width="2.55471" vectornator:layerName="Linie 2"/>
<path d="M69.9551 212.403L89.6211 240" fill="none" opacity="1" stroke="#000000" stroke-linecap="butt" stroke-linejoin="round" stroke-width="2.55471" vectornator:layerName="Linie 3"/>
<path d="M50.2892 196.215L89.6211 196.215" fill="none" opacity="1" stroke="#000000" stroke-linecap="butt" stroke-linejoin="round" stroke-width="2.55471" vectornator:layerName="Linie 4"/>
</g>
<path d="M398.71 207.067C398.71 205.896 399.314 204.946 400.06 204.946C400.805 204.946 401.409 205.896 401.409 207.067C401.409 208.238 400.805 209.188 400.06 209.188C399.314 209.188 398.71 208.238 398.71 207.067Z" fill="#5e711c" fill-opacity="0.226867" fill-rule="nonzero" opacity="1" stroke="#000000" stroke-linecap="butt" stroke-linejoin="round" stroke-width="2.55471" vectornator:layerName="Oval 2"/>
<text fill="#5e711c" font-family="Helvetica" font-size="20" opacity="1" stroke="none" text-anchor="start" transform="matrix(1 0 0 1 335.919 52.2508)" vectornator:layerName="Text 1" vectornator:width="108.615" x="0" y="0">
<tspan textLength="105.615" x="0" y="19">Animation n</tspan>
</text>
<path d="M286.888 195C286.888 173.342 317.134 155.784 354.444 155.784C391.754 155.784 422 173.342 422 195C422 216.658 391.754 234.216 354.444 234.216C317.134 234.216 286.888 216.658 286.888 195Z" fill="#ffffff" fill-rule="nonzero" opacity="1" stroke="#000000" stroke-linecap="butt" stroke-linejoin="round" stroke-width="2.55471" vectornator:layerName="Oval 1"/>
<path d="M102.959 182.109L180.078 122.043" fill="none" opacity="1" stroke="#000000" stroke-linecap="butt" stroke-linejoin="round" stroke-width="2.55471" vectornator:layerName="Linie 1"/>
<path d="M102.959 197.234L269.921 197.234" fill="none" opacity="1" stroke="#000000" stroke-linecap="butt" stroke-linejoin="round" stroke-width="2.55471" vectornator:layerName="Linie 2"/>
<path d="M322.285 296.718C322.285 275.059 352.531 257.502 389.841 257.502C427.152 257.502 457.398 275.059 457.398 296.718C457.398 318.376 427.152 335.934 389.841 335.934C352.531 335.934 322.285 318.376 322.285 296.718Z" fill="#ffffff" fill-rule="nonzero" opacity="1" stroke="#000000" stroke-linecap="butt" stroke-linejoin="round" stroke-width="2.55471" vectornator:layerName="Oval 7"/>
<path d="M430.406 130.683C430.406 109.025 460.652 91.4669 497.962 91.4669C535.272 91.4669 565.518 109.025 565.518 130.683C565.518 152.341 535.272 169.899 497.962 169.899C460.652 169.899 430.406 152.341 430.406 130.683Z" fill="#ffffff" fill-rule="nonzero" opacity="1" stroke="#000000" stroke-linecap="butt" stroke-linejoin="round" stroke-width="2.55471" vectornator:layerName="Oval 5"/>
<path d="M468.965 248.404C468.965 226.746 499.211 209.188 536.522 209.188C573.832 209.188 604.078 226.746 604.078 248.404C604.078 270.062 573.832 287.62 536.522 287.62C499.211 287.62 468.965 270.062 468.965 248.404Z" fill="#ffffff" fill-rule="nonzero" opacity="1" stroke="#000000" stroke-linecap="butt" stroke-linejoin="round" stroke-width="2.55471" vectornator:layerName="Oval 6"/>
<path d="M169.667 296.718C169.667 275.059 199.913 257.502 237.223 257.502C274.533 257.502 304.779 275.059 304.779 296.718C304.779 318.376 274.533 335.934 237.223 335.934C199.913 335.934 169.667 318.376 169.667 296.718Z" fill="#ffffff" fill-rule="nonzero" opacity="1" stroke="#000000" stroke-linecap="butt" stroke-linejoin="round" stroke-width="2.55471" vectornator:layerName="Oval 3"/>
<path d="M169.667 91.4669C169.667 69.8084 199.913 52.2508 237.223 52.2508C274.533 52.2508 304.779 69.8084 304.779 91.4669C304.779 113.125 274.533 130.683 237.223 130.683C199.913 130.683 169.667 113.125 169.667 91.4669Z" fill="#ffffff" fill-rule="nonzero" opacity="1" stroke="#000000" stroke-linecap="butt" stroke-linejoin="round" stroke-width="2.55471" vectornator:layerName="Oval 4"/>
<path d="M102.959 216.77L180.078 265.728" fill="none" opacity="1" stroke="#000000" stroke-linecap="butt" stroke-linejoin="round" stroke-width="2.55471" vectornator:layerName="Linie 3"/>
<text fill="#000000" font-family="Helvetica" font-size="11.4183" opacity="1" stroke="none" text-anchor="start" transform="matrix(1 0 0 1 186.999 74.7258)" vectornator:layerName="Text 2" vectornator:width="100.447" x="0" y="0">
<tspan textLength="52.0348" x="25.7925" y="11">zurück zu </tspan>
<tspan textLength="76.7949" x="11.8263" y="25">Animation n - 1</tspan>
</text>
<text fill="#000000" font-family="Helvetica" font-size="11.4183" opacity="1" stroke="none" text-anchor="start" transform="matrix(1 0 0 1 315.502 182.109)" vectornator:layerName="Text 4" vectornator:width="77.8826" x="0" y="0">
<tspan textLength="63.4698" x="8.79256" y="11">Animation n </tspan>
<tspan textLength="34.9073" x="21.4876" y="25">starten</tspan>
</text>
<text fill="#000000" font-family="Helvetica" font-size="11.4183" opacity="1" stroke="none" text-anchor="start" transform="matrix(1 0 0 1 350.9 279.387)" vectornator:layerName="Text 9" vectornator:width="77.8826" x="0" y="0">
<tspan textLength="63.4698" x="8.79256" y="11">Animation n </tspan>
<tspan textLength="53.9639" x="11.9594" y="25">abbrechen</tspan>
</text>
<text fill="#000000" font-family="Helvetica" font-size="11.4183" opacity="1" stroke="none" text-anchor="start" transform="matrix(1 0 0 1 497.962 232.573)" vectornator:layerName="Text 10" vectornator:width="77.8826" x="0" y="0">
<tspan textLength="63.4698" x="8.79256" y="11">Animation n </tspan>
<tspan textLength="50.1392" x="13.8717" y="25">fortsetzen</tspan>
</text>
<text fill="#000000" font-family="Helvetica" font-size="11.4183" opacity="1" stroke="none" text-anchor="start" transform="matrix(1 0 0 1 459.021 113.352)" vectornator:layerName="Text 11" vectornator:width="77.8826" x="0" y="0">
<tspan textLength="63.4698" x="8.79256" y="11">Animation n </tspan>
<tspan textLength="67.2889" x="5.29682" y="25">unterbrechen</tspan>
</text>
<text fill="#000000" font-family="Helvetica" font-size="11.4183" opacity="1" stroke="none" text-anchor="start" transform="matrix(1 0 0 1 192.92 281.975)" vectornator:layerName="Text 3" vectornator:width="88.6059" x="0" y="0">
<tspan textLength="48.8624" x="21.4579" y="11">weiter zu </tspan>
<tspan textLength="79.6607" x="4.4726" y="25">Animation n + 1</tspan>
</text>
<path d="M439.021 150L437.807 151.08M435.588 153.052L434.246 154.246M432.089 156.163L430.445 157.625M428.265 159.563L426.715 160.942M424.54 162.875L422.589 164.609M420.411 166.546L418.083 168.615M415.894 170.562L410.76 175.126" fill="none" opacity="1" stroke="#000000" stroke-linecap="butt" stroke-linejoin="round" stroke-width="2.55471" vectornator:layerName="Kurve 1"/>
<path d="M412.278 166.112L412.181 173.891" fill="none" opacity="1" stroke="#000000" stroke-linecap="butt" stroke-linejoin="round" stroke-width="2.55471" vectornator:layerName="Linie 4"/>
<path d="M412.278 174.087L422 173.891" fill="none" opacity="1" stroke="#000000" stroke-linecap="butt" stroke-linejoin="round" stroke-width="2.55471" vectornator:layerName="Linie 5"/>
<path d="M412.278 167.922L412.181 163.861" fill="none" opacity="1" stroke="#000000" stroke-linecap="butt" stroke-linejoin="round" stroke-width="2.55471" vectornator:layerName="Linie 6"/>
<path d="M511.601 169.899L513.429 176.73M514.219 179.684L514.997 182.592M515.796 185.578L516.867 189.579M517.662 192.551L518.824 196.896M519.62 199.872L522.113 209.188" fill="none" opacity="1" stroke="#000000" stroke-linecap="butt" stroke-linejoin="round" stroke-width="2.55471" vectornator:layerName="Kurve 2"/>
<path d="M522.113 209.188L528.125 197.234" fill="none" opacity="1" stroke="#000000" stroke-linecap="butt" stroke-linejoin="round" stroke-width="2.55471" vectornator:layerName="Linie 8"/>
<path d="M522.113 209.188L511.601 201.346" fill="none" opacity="1" stroke="#000000" stroke-linecap="butt" stroke-linejoin="round" stroke-width="2.55471" vectornator:layerName="Linie 9"/>
<path d="M452.819 281.975L457.293 278.773M459.817 276.966L462.465 275.07M464.969 273.278L467.765 271.276M470.256 269.493L475.517 265.728" fill="none" opacity="1" stroke="#000000" stroke-linecap="butt" stroke-linejoin="round" stroke-width="2.55471" vectornator:layerName="Kurve 3"/>
<path d="M475.517 266.985L473.352 276.138" fill="none" opacity="1" stroke="#000000" stroke-linecap="butt" stroke-linejoin="round" stroke-width="2.55471" vectornator:layerName="Linie 11"/>
<path d="M475.517 265.728L464.168 265.728" fill="none" opacity="1" stroke="#000000" stroke-linecap="butt" stroke-linejoin="round" stroke-width="2.55471" vectornator:layerName="Linie 12"/>
<path d="M365.258 234.216L366.794 239.454M367.649 242.372L368.622 245.689M369.489 248.647L370.513 252.139M371.37 255.06L372.527 259.007" fill="none" opacity="1" stroke="#000000" stroke-linecap="butt" stroke-linejoin="round" stroke-width="2.55471" vectornator:layerName="Kurve 4"/>
<path d="M365.258 234.216L361.364 245.352" fill="none" opacity="1" stroke="#000000" stroke-linecap="butt" stroke-linejoin="round" stroke-width="2.55471" vectornator:layerName="Linie 14"/>
<path d="M365.258 234.216L375.071 241.249" fill="none" opacity="1" stroke="#000000" stroke-linecap="butt" stroke-linejoin="round" stroke-width="2.55471" vectornator:layerName="Linie 15"/>
<text fill="#000000" font-family="Helvetica" font-size="8.43299" opacity="1" stroke="none" text-anchor="start" transform="matrix(1 0 0 1 452.902 286.475)" vectornator:layerName="Text 5" vectornator:width="63.9553" x="0" y="0">
<tspan textLength="45.0185" x="9.46843" y="8">&lt;&lt;extend&gt;&gt;</tspan>
</text>
<text fill="#000000" font-family="Helvetica" font-size="8.43299" opacity="1" stroke="none" text-anchor="start" transform="matrix(1 0 0 1 369.432 145.576)" vectornator:layerName="Text 6" vectornator:width="63.9553" x="0" y="0">
<tspan textLength="45.0185" x="9.46843" y="8">&lt;&lt;extend&gt;&gt;</tspan>
</text>
<text fill="#000000" font-family="Helvetica" font-size="8.43299" opacity="1" stroke="none" text-anchor="start" transform="matrix(1 0 0 1 511.601 180.109)" vectornator:layerName="Text 7" vectornator:width="63.9553" x="0" y="0">
<tspan textLength="45.0185" x="9.46843" y="8">&lt;&lt;extend&gt;&gt;</tspan>
</text>
<text fill="#000000" font-family="Helvetica" font-size="8.43299" opacity="1" stroke="none" text-anchor="start" transform="matrix(1 0 0 1 366.451 241.904)" vectornator:layerName="Text 8" vectornator:width="63.9553" x="0" y="0">
<tspan textLength="45.0185" x="9.46843" y="8">&lt;&lt;extend&gt;&gt;</tspan>
</text>
</g>
</svg>
