<?xml version="1.0" encoding="utf-8"?>
<!-- Generator: Adobe Illustrator 28.3.0, SVG Export Plug-In . SVG Version: 6.00 Build 0)  -->
<svg version="1.1" id="Ebene_1" xmlns:vectornator="http://vectornator.io"
	 xmlns="http://www.w3.org/2000/svg" xmlns:xlink="http://www.w3.org/1999/xlink" x="0px" y="0px" viewBox="0 0 1920 1080"
	 style="enable-background:new 0 0 1920 1080;" xml:space="preserve">
<style type="text/css">
	.st0{fill:#5E711C;fill-opacity:0.2269;stroke:#000000;stroke-width:5.8117;stroke-linejoin:round;stroke-miterlimit:22.7488;}
	.st1{fill:#5E711C;stroke:#000000;stroke-width:5.8117;stroke-linejoin:round;stroke-miterlimit:22.7488;}
	.st2{fill:none;stroke:#000000;stroke-width:5.8117;stroke-linejoin:round;stroke-miterlimit:22.7488;}
	.st3{fill:#5E711C;}
	.st4{font-family:'ArialMT';}
	.st5{font-size:45.4976px;}
	.st6{fill:#FFFFFF;stroke:#000000;stroke-width:5.8117;stroke-linejoin:round;stroke-miterlimit:22.7488;}
	.st7{font-size:25.9753px;}
	.st8{fill:none;}
	.st9{font-size:19.1841px;}
</style>
<g id="Ebene-1" vectornator:layerName="Ebene 1">
	<g vectornator:layerName="Gruppieren 2">
		<path vectornator:layerName="Rechteck 1" class="st0" d="M304.81,154.12h1194.44v763.72H304.81V154.12z"/>
	</g>
	<g vectornator:layerName="Gruppieren 1">
		<path vectornator:layerName="Oval 1" class="st1" d="M107.85,460.71c0-18.86,15.29-34.16,34.15-34.16s34.15,15.29,34.15,34.16
			c0,18.86-15.29,34.15-34.15,34.15S107.85,479.57,107.85,460.71z"/>
		<path vectornator:layerName="Linie 1" class="st2" d="M142.01,494.87v73.65"/>
		<path vectornator:layerName="Linie 2" class="st2" d="M142.01,568.52L97.27,631.3"/>
		<path vectornator:layerName="Linie 3" class="st2" d="M142.01,568.52l44.74,62.78"/>
		<path vectornator:layerName="Linie 4" class="st2" d="M97.27,531.69h89.48"/>
	</g>
	<path vectornator:layerName="Oval 2" class="st0" d="M889.89,556.38c0-2.66,1.37-4.83,3.07-4.83c1.69,0,3.07,2.16,3.07,4.83
		s-1.37,4.83-3.07,4.83C891.26,561.2,889.89,559.04,889.89,556.38z"/>
	<text transform="matrix(1 0 0 1 747.0445 204.1887)" class="st3 st4 st5"> </text>
	<text transform="matrix(1 0 0 1 747.0445 247.4114)" class="st3 st4 st5">Animation n</text>
	<text transform="matrix(1 0 0 1 987.3062 247.4114)" class="st3 st4 st5"> </text>
	<path vectornator:layerName="Oval 1" class="st6" d="M635.5,528.93c0-49.27,68.81-89.21,153.68-89.21s153.68,39.94,153.68,89.21
		s-68.81,89.21-153.68,89.21S635.5,578.2,635.5,528.93z"/>
	<path vectornator:layerName="Linie 1" class="st2" d="M392.52,362.96"/>
	<path vectornator:layerName="Linie 1" class="st2" d="M217.09,499.6"/>
	<path vectornator:layerName="Linie 2" class="st2" d="M217.09,534.01h379.82"/>
	<path vectornator:layerName="Oval 7" class="st6" d="M716.03,760.32c0-49.27,68.81-89.21,153.68-89.21
		c84.88,0,153.68,39.94,153.68,89.21c0,49.27-68.81,89.21-153.68,89.21C784.83,849.54,716.03,809.59,716.03,760.32z"/>
	<path vectornator:layerName="Oval 5" class="st6" d="M961.99,382.61c0-49.27,68.81-89.21,153.68-89.21
		c84.88,0,153.68,39.94,153.68,89.21s-68.81,89.21-153.68,89.21C1030.8,471.83,961.99,431.88,961.99,382.61z"/>
	<path vectornator:layerName="Oval 6" class="st6" d="M1049.71,650.41c0-49.27,68.81-89.21,153.68-89.21
		c84.88,0,153.68,39.94,153.68,89.21s-68.81,89.21-153.68,89.21C1118.51,739.63,1049.71,699.68,1049.71,650.41z"/>
	<path vectornator:layerName="Linie 3" class="st2" d="M217.09,578.45l469,144.69"/>
	<text transform="matrix(1 0 0 1 408.2691 255.3166)" class="st4 st7"> </text>
	<text transform="matrix(1 0 0 1 585.316 280.341)" class="st4 st7"> </text>
	<text transform="matrix(1 0 0 1 609.8716 312.1887)" class="st4 st7"> </text>
	<text transform="matrix(1 0 0 1 700.5982 499.6008)" class="st4 st7"> </text>
	<text transform="matrix(1 0 0 1 720.6002 524.6243)" class="st4 st7">Animation n </text>
	<text transform="matrix(1 0 0 1 864.9859 524.6243)" class="st4 st7"> </text>
	<rect x="749.48" y="534.18" class="st8" width="79.41" height="30.73"/>
	<text transform="matrix(1 0 0 1 749.48 556.4729)" class="st4 st7">starten</text>
	<text transform="matrix(1 0 0 1 828.8892 556.4729)" class="st4 st7"> </text>
	<text transform="matrix(1 0 0 1 781.1246 720.8967)" class="st4 st7"> </text>
	<text transform="matrix(1 0 0 1 801.1265 745.9202)" class="st4 st7">Animation n </text>
	<text transform="matrix(1 0 0 1 945.5123 745.9202)" class="st4 st7"> </text>
	<rect x="808.33" y="755.48" class="st8" width="122.76" height="30.73"/>
	<text transform="matrix(1 0 0 1 808.3306 777.7698)" class="st4 st7">abbrechen</text>
	<text transform="matrix(1 0 0 1 931.0914 777.7688)" class="st4 st7"> </text>
	<text transform="matrix(1 0 0 1 1115.6735 614.4006)" class="st4 st7"> </text>
	<text transform="matrix(1 0 0 1 1135.6754 639.4241)" class="st4 st7">Animation n </text>
	<text transform="matrix(1 0 0 1 1280.0612 639.4241)" class="st4 st7"> </text>
	<rect x="1147.23" y="648.98" class="st8" width="114.06" height="30.73"/>
	<text transform="matrix(1 0 0 1 1147.2301 671.2727)" class="st4 st7">fortsetzen</text>
	<text transform="matrix(1 0 0 1 1261.2897 671.2727)" class="st4 st7"> </text>
	<text transform="matrix(1 0 0 1 1027.0865 343.1867)" class="st4 st7"> </text>
	<text transform="matrix(1 0 0 1 1047.0895 368.2102)" class="st4 st7">Animation n </text>
	<text transform="matrix(1 0 0 1 1191.4742 368.2102)" class="st4 st7"> </text>
	<rect x="1039.14" y="377.77" class="st8" width="153.07" height="30.73"/>
	<text transform="matrix(1 0 0 1 1039.1364 400.0593)" class="st4 st7">unterbrechen</text>
	<text transform="matrix(1 0 0 1 1192.2106 400.0588)" class="st4 st7"> </text>
	<text transform="matrix(1 0 0 1 421.7388 726.7844)" class="st4 st7"> </text>
	<text transform="matrix(1 0 0 1 581.7086 751.8079)" class="st4 st7"> </text>
	<text transform="matrix(1 0 0 1 613.1314 783.6565)" class="st4 st7"> </text>
	<path vectornator:layerName="Kurve 1" class="st2" d="M981.59,426.56l-2.76,2.46 M973.78,433.5l-3.05,2.72 M965.82,440.58
		l-3.74,3.33 M957.12,448.31l-3.53,3.14 M948.65,455.85l-4.44,3.94 M939.25,464.2l-5.3,4.71 M928.98,473.33l-11.68,10.38"/>
	<path vectornator:layerName="Linie 4" class="st2" d="M920.75,463.21l-0.22,17.7"/>
	<path vectornator:layerName="Linie 5" class="st2" d="M920.75,481.35l22.12-0.45"/>
	<path vectornator:layerName="Linie 6" class="st2" d="M920.75,467.33l-0.22-9.24"/>
	<path vectornator:layerName="Kurve 2" class="st2" d="M1146.7,471.83l4.16,15.54 M1152.66,494.08l1.77,6.62 M1156.24,507.49
		l2.44,9.1 M1160.49,523.36l2.64,9.88 M1164.94,540.01l5.67,21.19"/>
	<path vectornator:layerName="Linie 8" class="st2" d="M1134.25,497.76l13.68-27.19"/>
	<path vectornator:layerName="Linie 9" class="st2" d="M1171.77,491.47l-23.91-17.84"/>
	<path vectornator:layerName="Kurve 3" class="st2" d="M1012.98,726.78l10.18-7.28 M1028.9,715.39l6.02-4.31 M1040.62,707l6.36-4.55
		 M1052.65,698.39l11.97-8.56"/>
	<path vectornator:layerName="Linie 11" class="st2" d="M1064.61,692.68l-4.93,20.82"/>
	<path vectornator:layerName="Linie 12" class="st2" d="M1064.61,689.82h-25.82"/>
	<path vectornator:layerName="Kurve 4" class="st2" d="M813.79,618.14l3.49,11.92 M819.23,636.69l2.21,7.55 M823.41,650.97
		l2.33,7.94 M827.69,665.56l2.63,8.98"/>
	<path vectornator:layerName="Linie 14" class="st2" d="M813.79,618.14l-8.86,25.33"/>
	<path vectornator:layerName="Linie 15" class="st2" d="M813.79,618.14l22.32,16"/>
	<text transform="matrix(1 0 0 1 1013.1666 737.0217)" class="st4 st9"> </text>
	<text transform="matrix(1 0 0 1 1034.7067 755.22)" class="st4 st9">&lt;&lt;extend&gt;&gt;</text>
	<text transform="matrix(1 0 0 1 1137.1188 755.22)" class="st4 st9"> </text>
	<text transform="matrix(1 0 0 1 823.2828 416.4924)" class="st4 st9"> </text>
	<text transform="matrix(1 0 0 1 844.8218 434.6916)" class="st4 st9">&lt;&lt;extend&gt;&gt;</text>
	<text transform="matrix(1 0 0 1 947.2339 434.6916)" class="st4 st9"> </text>
	<text transform="matrix(1 0 0 1 1146.6998 495.051)" class="st4 st9"> </text>
	<text transform="matrix(1 0 0 1 1168.2399 513.2502)" class="st4 st9">&lt;&lt;extend&gt;&gt;</text>
	<text transform="matrix(1 0 0 1 1270.652 513.2502)" class="st4 st9"> </text>
	<text transform="matrix(1 0 0 1 816.5005 635.6272)" class="st4 st9"> </text>
	<text transform="matrix(1 0 0 1 838.0406 653.8264)" class="st4 st9">&lt;&lt;extend&gt;&gt;</text>
	<text transform="matrix(1 0 0 1 940.4517 653.8264)" class="st4 st9"> </text>
</g>
<path vectornator:layerName="Linie 3" class="st2" d="M217.09,479.21l723.36-116.25"/>
</svg>
